<svg width="1080" height="540" viewBox="0 0 1080 540" fill="none" xmlns="http://www.w3.org/2000/svg">
<rect width="1080" height="540" fill="#F4F4F4"/>
<rect width="1080" height="540" fill="#F4F4F4"/>
<rect x="160.5" y="146.5" width="759" height="247" fill="white"/>
<g clip-path="url(#clip0_711_36413)">
<text fill="black" xml:space="preserve" style="white-space: pre" font-family="IBM Plex Sans" font-size="14" font-weight="600" letter-spacing="0.16px"><tspan x="212" y="175.25">IBM Cloud</tspan></text>
<g clip-path="url(#clip1_711_36413)">
<rect width="20" height="20" transform="translate(176 160)" fill="white" style="mix-blend-mode:multiply"/>
<path d="M191.363 168.532C190.742 167.368 189.759 166.438 188.563 165.881C187.367 165.324 186.022 165.172 184.731 165.446C183.441 165.72 182.275 166.407 181.408 167.402C180.542 168.397 180.023 169.647 179.929 170.963C178.855 171.078 177.867 171.6 177.168 172.422C176.468 173.244 176.11 174.303 176.167 175.381C176.224 176.459 176.692 177.473 177.475 178.217C178.258 178.96 179.296 179.375 180.375 179.376H190.375C191.739 179.377 193.055 178.867 194.063 177.948C195.071 177.028 195.698 175.764 195.822 174.405C195.946 173.046 195.557 171.69 194.732 170.604C193.907 169.517 192.705 168.778 191.363 168.532ZM190.375 178.438H180.375C179.543 178.44 178.742 178.126 178.134 177.558C177.526 176.991 177.157 176.214 177.101 175.384C177.046 174.554 177.308 173.735 177.835 173.091C178.362 172.448 179.113 172.029 179.938 171.92C180.004 172.747 180.239 173.552 180.628 174.285C180.656 174.341 180.695 174.391 180.742 174.431C180.79 174.472 180.845 174.502 180.905 174.521C180.965 174.54 181.028 174.547 181.09 174.541C181.152 174.535 181.213 174.517 181.268 174.487C181.323 174.458 181.372 174.417 181.411 174.369C181.45 174.32 181.479 174.264 181.497 174.204C181.514 174.144 181.519 174.081 181.512 174.018C181.504 173.956 181.484 173.896 181.453 173.842C180.834 172.684 180.68 171.333 181.022 170.065C181.365 168.796 182.179 167.707 183.298 167.019C184.416 166.33 185.755 166.095 187.042 166.36C188.328 166.625 189.465 167.372 190.22 168.447C189.471 168.467 188.734 168.642 188.055 168.959C187.376 169.276 186.77 169.729 186.273 170.291C186.231 170.336 186.198 170.39 186.177 170.449C186.156 170.508 186.146 170.57 186.15 170.632C186.153 170.695 186.168 170.756 186.196 170.812C186.223 170.868 186.261 170.918 186.308 170.96C186.354 171.001 186.409 171.032 186.468 171.052C186.527 171.072 186.59 171.08 186.652 171.076C186.714 171.071 186.775 171.054 186.831 171.026C186.886 170.997 186.936 170.958 186.976 170.911C187.477 170.343 188.112 169.909 188.823 169.65C189.535 169.391 190.3 169.314 191.048 169.426C191.797 169.539 192.506 169.837 193.11 170.294C193.713 170.751 194.193 171.352 194.505 172.042C194.816 172.733 194.95 173.49 194.893 174.245C194.837 175 194.592 175.729 194.182 176.365C193.771 177.001 193.207 177.524 192.542 177.886C191.877 178.249 191.132 178.438 190.375 178.438Z" fill="black"/>
<path d="M195.936 166.41C195.905 166.356 195.864 166.309 195.814 166.271C195.765 166.233 195.709 166.205 195.648 166.189C195.588 166.173 195.526 166.169 195.464 166.177C195.402 166.185 195.342 166.206 195.289 166.237L193.401 167.327C193.346 167.357 193.297 167.398 193.258 167.447C193.218 167.497 193.189 167.554 193.172 167.615C193.155 167.675 193.15 167.739 193.158 167.802C193.166 167.864 193.186 167.925 193.218 167.98C193.249 168.034 193.292 168.082 193.342 168.12C193.392 168.159 193.45 168.186 193.511 168.202C193.572 168.218 193.636 168.221 193.698 168.212C193.761 168.202 193.821 168.181 193.875 168.148L195.762 167.058C195.871 166.995 195.951 166.892 195.983 166.77C196.016 166.649 195.999 166.519 195.936 166.41Z" fill="black"/>
<path d="M190.173 164.92C190.227 164.951 190.286 164.971 190.348 164.979C190.41 164.987 190.472 164.983 190.532 164.967C190.593 164.951 190.649 164.923 190.698 164.885C190.748 164.847 190.789 164.8 190.82 164.746L191.91 162.859C191.972 162.75 191.988 162.621 191.955 162.5C191.923 162.38 191.843 162.277 191.735 162.214C191.627 162.151 191.498 162.134 191.377 162.166C191.256 162.198 191.152 162.277 191.089 162.384L189.999 164.272C189.936 164.381 189.919 164.51 189.952 164.632C189.984 164.753 190.064 164.857 190.173 164.92Z" fill="black"/>
<path d="M186 163.802C186.126 163.802 186.246 163.752 186.335 163.663C186.424 163.574 186.474 163.453 186.474 163.327V161.148C186.475 161.085 186.463 161.023 186.44 160.965C186.416 160.906 186.381 160.853 186.337 160.809C186.293 160.764 186.241 160.729 186.183 160.705C186.125 160.68 186.063 160.668 186 160.668C185.937 160.668 185.875 160.68 185.817 160.705C185.759 160.729 185.707 160.764 185.663 160.809C185.619 160.853 185.584 160.906 185.56 160.965C185.537 161.023 185.525 161.085 185.526 161.148V163.327C185.526 163.453 185.576 163.574 185.665 163.663C185.754 163.752 185.874 163.802 186 163.802Z" fill="black"/>
<path d="M181.179 164.746C181.243 164.854 181.346 164.932 181.467 164.964C181.588 164.996 181.717 164.979 181.825 164.917C181.934 164.854 182.013 164.751 182.046 164.63C182.079 164.51 182.062 164.381 182.001 164.272L180.911 162.384C180.88 162.33 180.839 162.282 180.789 162.244C180.74 162.205 180.683 162.177 180.623 162.161C180.562 162.144 180.499 162.14 180.437 162.148C180.375 162.156 180.315 162.176 180.261 162.208C180.207 162.239 180.16 162.281 180.122 162.33C180.084 162.38 180.056 162.437 180.04 162.497C180.024 162.558 180.02 162.621 180.029 162.683C180.037 162.745 180.058 162.805 180.09 162.859L181.179 164.746Z" fill="black"/>
<path d="M178.599 167.327L176.711 166.237C176.658 166.205 176.598 166.184 176.536 166.176C176.474 166.167 176.411 166.171 176.35 166.187C176.29 166.203 176.233 166.231 176.183 166.269C176.134 166.307 176.092 166.354 176.061 166.408C176.029 166.463 176.009 166.522 176.001 166.585C175.993 166.647 175.997 166.71 176.014 166.77C176.03 166.83 176.058 166.887 176.097 166.936C176.135 166.986 176.183 167.027 176.237 167.058L178.125 168.148C178.179 168.18 178.239 168.2 178.301 168.209C178.363 168.217 178.426 168.213 178.486 168.198C178.547 168.182 178.603 168.154 178.653 168.116C178.703 168.078 178.744 168.03 178.776 167.976C178.807 167.922 178.827 167.862 178.835 167.8C178.843 167.738 178.839 167.675 178.823 167.615C178.806 167.554 178.778 167.498 178.74 167.448C178.701 167.399 178.653 167.357 178.599 167.327Z" fill="black"/>
</g>
<line x1="162" y1="146" x2="162" y2="194" stroke="#8D8D8D" stroke-width="4"/>
</g>
<rect x="160.5" y="146.5" width="759" height="247" stroke="#8D8D8D"/>
<rect x="617" y="211" width="286" height="166" fill="white"/>
<rect x="617" y="211" width="286" height="166" fill="#EDF5FF"/>
<g clip-path="url(#clip2_711_36413)">
<text fill="black" xml:space="preserve" style="white-space: pre" font-family="IBM Plex Sans" font-size="14" font-weight="600" letter-spacing="0.16px"><tspan x="680" y="230.25">IBM Cloud Object Storage&#10;</tspan></text>
<text fill="black" xml:space="preserve" style="white-space: pre" font-family="IBM Plex Sans" font-size="14" letter-spacing="0.16px"><tspan x="680" y="248.25">Instance</tspan></text>
<rect width="48" height="48" transform="translate(616 210)" fill="#0F62FE"/>
<rect width="20" height="20" transform="translate(630 224)" fill="white" style="mix-blend-mode:multiply"/>
<path d="M647.5 236.5H646.25V237.75H647.5V241.5H632.5V237.75H638.75V236.5H632.5C632.169 236.5 631.851 236.632 631.617 236.867C631.382 237.101 631.25 237.419 631.25 237.75V241.5C631.25 241.831 631.382 242.149 631.617 242.383C631.851 242.618 632.169 242.75 632.5 242.75H647.5C647.831 242.75 648.149 242.618 648.383 242.383C648.618 242.149 648.75 241.831 648.75 241.5V237.75C648.75 237.419 648.618 237.101 648.383 236.867C648.149 236.632 647.831 236.5 647.5 236.5Z" fill="white"/>
<path d="M634.375 240.25C634.72 240.25 635 239.97 635 239.625C635 239.28 634.72 239 634.375 239C634.03 239 633.75 239.28 633.75 239.625C633.75 239.97 634.03 240.25 634.375 240.25Z" fill="white"/>
<path d="M648.75 229H643.75V232.75H640V237.75H645V234H648.75V229ZM643.75 236.5H641.25V234H643.75V236.5ZM647.5 232.75H645V230.25H647.5V232.75Z" fill="white"/>
<path d="M641.25 230.25H636.25V225.25H641.25V230.25ZM637.5 229H640V226.5H637.5V229Z" fill="white"/>
</g>
<rect x="616.5" y="210.5" width="287" height="167" stroke="#0F62FE"/>
<rect width="192" height="92" transform="translate(224 270)" fill="white" style="mix-blend-mode:multiply"/>
<rect width="48" height="48" transform="translate(296 270)" fill="#24A148"/>
<rect width="20" height="20" transform="translate(310 284)" fill="white" style="mix-blend-mode:multiply"/>
<path d="M327.5 294V297.75H312.5V287.75H320V286.5H312.5C312.168 286.5 311.851 286.632 311.616 286.866C311.382 287.101 311.25 287.418 311.25 287.75V297.75C311.25 298.082 311.382 298.399 311.616 298.634C311.851 298.868 312.168 299 312.5 299H317.5V301.5H315V302.75H325V301.5H322.5V299H327.5C327.832 299 328.149 298.868 328.384 298.634C328.618 298.399 328.75 298.082 328.75 297.75V294H327.5ZM321.25 301.5H318.75V299H321.25V301.5Z" fill="white"/>
<path d="M323.125 293.375L320 290.275L320.994 289.294L323.125 291.406L327.756 286.812L328.75 287.8L323.125 293.375Z" fill="white"/>
<text fill="black" xml:space="preserve" style="white-space: pre" font-family="IBM Plex Sans" font-size="14" font-weight="600" letter-spacing="0.16px"><tspan x="231.847" y="340.25">IBM Cloud Activity Tracker</tspan></text>
<text fill="black" xml:space="preserve" style="white-space: pre" font-family="IBM Plex Sans" font-size="14" letter-spacing="0.16px"><tspan x="225.254" y="358.25">Hosted event search instance</tspan></text>
<rect width="192" height="92" transform="translate(664 270)" fill="white" style="mix-blend-mode:multiply"/>
<rect width="48" height="48" transform="translate(736 270)" fill="#0F62FE"/>
<rect width="20" height="20" transform="translate(750 284)" fill="white" style="mix-blend-mode:multiply"/>
<path d="M767.5 287.75H759.375V289H767.5V287.75Z" fill="white"/>
<path d="M767.5 299H759.375V300.25H767.5V299Z" fill="white"/>
<path d="M760.625 293.375H752.5V294.625H760.625V293.375Z" fill="white"/>
<path d="M754.375 290.875C753.881 290.875 753.397 290.728 752.986 290.454C752.575 290.179 752.255 289.789 752.065 289.332C751.876 288.875 751.827 288.372 751.923 287.887C752.02 287.402 752.258 286.957 752.607 286.607C752.957 286.258 753.402 286.02 753.887 285.923C754.372 285.827 754.875 285.876 755.332 286.065C755.789 286.255 756.179 286.575 756.454 286.986C756.728 287.397 756.875 287.881 756.875 288.375C756.875 289.038 756.612 289.674 756.143 290.143C755.674 290.612 755.038 290.875 754.375 290.875ZM754.375 287.125C754.128 287.125 753.886 287.198 753.681 287.336C753.475 287.473 753.315 287.668 753.22 287.897C753.126 288.125 753.101 288.376 753.149 288.619C753.197 288.861 753.316 289.084 753.491 289.259C753.666 289.434 753.889 289.553 754.131 289.601C754.374 289.649 754.625 289.624 754.853 289.53C755.082 289.435 755.277 289.275 755.414 289.069C755.552 288.864 755.625 288.622 755.625 288.375C755.625 288.043 755.493 287.726 755.259 287.491C755.024 287.257 754.707 287.125 754.375 287.125Z" fill="white"/>
<path d="M754.375 302.125C753.881 302.125 753.397 301.978 752.986 301.704C752.575 301.429 752.255 301.039 752.065 300.582C751.876 300.125 751.827 299.622 751.923 299.137C752.02 298.652 752.258 298.207 752.607 297.857C752.957 297.508 753.402 297.27 753.887 297.173C754.372 297.077 754.875 297.126 755.332 297.315C755.789 297.505 756.179 297.825 756.454 298.236C756.728 298.647 756.875 299.131 756.875 299.625C756.875 300.288 756.612 300.924 756.143 301.393C755.674 301.862 755.038 302.125 754.375 302.125ZM754.375 298.375C754.128 298.375 753.886 298.448 753.681 298.586C753.475 298.723 753.315 298.918 753.22 299.147C753.126 299.375 753.101 299.626 753.149 299.869C753.197 300.111 753.316 300.334 753.491 300.509C753.666 300.684 753.889 300.803 754.131 300.851C754.374 300.899 754.625 300.874 754.853 300.78C755.082 300.685 755.277 300.525 755.414 300.319C755.552 300.114 755.625 299.872 755.625 299.625C755.625 299.293 755.493 298.976 755.259 298.741C755.024 298.507 754.707 298.375 754.375 298.375Z" fill="white"/>
<path d="M765.625 296.5C765.131 296.5 764.647 296.353 764.236 296.079C763.825 295.804 763.505 295.414 763.315 294.957C763.126 294.5 763.077 293.997 763.173 293.512C763.27 293.027 763.508 292.582 763.857 292.232C764.207 291.883 764.652 291.645 765.137 291.548C765.622 291.452 766.125 291.501 766.582 291.69C767.039 291.88 767.429 292.2 767.704 292.611C767.978 293.022 768.125 293.506 768.125 294C768.125 294.663 767.862 295.299 767.393 295.768C766.924 296.237 766.288 296.5 765.625 296.5ZM765.625 292.75C765.378 292.75 765.136 292.823 764.931 292.961C764.725 293.098 764.565 293.293 764.47 293.522C764.376 293.75 764.351 294.001 764.399 294.244C764.447 294.486 764.566 294.709 764.741 294.884C764.916 295.059 765.139 295.178 765.381 295.226C765.624 295.274 765.875 295.249 766.103 295.155C766.332 295.06 766.527 294.9 766.664 294.694C766.802 294.489 766.875 294.247 766.875 294C766.875 293.668 766.743 293.351 766.509 293.116C766.274 292.882 765.957 292.75 765.625 292.75Z" fill="white"/>
<text fill="black" xml:space="preserve" style="white-space: pre" font-family="IBM Plex Sans" font-size="14" font-weight="600" letter-spacing="0.16px"><tspan x="736.973" y="340.25">Bucket</tspan></text>
<text fill="black" xml:space="preserve" style="white-space: pre" font-family="IBM Plex Sans" font-size="14" letter-spacing="0.16px"><tspan x="737.645" y="358.25">json.gz</tspan></text>
<rect width="392" height="48" transform="translate(344 270)" fill="white" style="mix-blend-mode:multiply"/>
<path d="M344 294H728" stroke="black"/>
<path d="M728 290L736 294L728 298L728 290Z" fill="black"/>
<rect x="432.5" y="286.5" width="103" height="15" rx="7.5" fill="white"/>
<text fill="black" xml:space="preserve" style="white-space: pre" font-family="IBM Plex Sans" font-size="12" letter-spacing="0.32px"><tspan x="440" y="297.5">Auditing events</tspan></text>
<rect x="432.5" y="286.5" width="103" height="15" rx="7.5" stroke="black"/>
<defs>
<clipPath id="clip0_711_36413">
<rect width="760" height="48" fill="white" transform="translate(160 146)"/>
</clipPath>
<clipPath id="clip1_711_36413">
<rect width="20" height="20" fill="white" transform="translate(176 160)"/>
</clipPath>
<clipPath id="clip2_711_36413">
<rect width="288" height="48" fill="white" transform="translate(616 210)"/>
</clipPath>
</defs>
</svg>
