<svg width="1080" height="540" viewBox="0 0 1080 540" fill="none" xmlns="http://www.w3.org/2000/svg">
<rect width="1080" height="540" fill="#F4F4F4"/>
<rect width="48" height="74" transform="translate(48 162)" fill="white" style="mix-blend-mode:multiply"/>
<rect width="48" height="48" transform="translate(48 162)" fill="#8D8D8D"/>
<rect width="20" height="20" transform="translate(62 176)" fill="white" style="mix-blend-mode:multiply"/>
<path d="M72 178.5C72.6181 178.5 73.2223 178.683 73.7362 179.027C74.2501 179.37 74.6506 179.858 74.8871 180.429C75.1236 181 75.1855 181.628 75.065 182.235C74.9444 182.841 74.6467 183.398 74.2097 183.835C73.7727 184.272 73.2158 184.569 72.6097 184.69C72.0035 184.811 71.3751 184.749 70.8041 184.512C70.2331 184.276 69.745 183.875 69.4017 183.361C69.0583 182.847 68.875 182.243 68.875 181.625C68.875 180.796 69.2042 180.001 69.7903 179.415C70.3763 178.829 71.1712 178.5 72 178.5ZM72 177.25C71.1347 177.25 70.2888 177.507 69.5694 177.987C68.8499 178.468 68.2892 179.151 67.958 179.951C67.6269 180.75 67.5403 181.63 67.7091 182.479C67.8779 183.327 68.2946 184.107 68.9064 184.719C69.5183 185.33 70.2978 185.747 71.1465 185.916C71.9951 186.085 72.8748 185.998 73.6742 185.667C74.4737 185.336 75.1569 184.775 75.6377 184.056C76.1184 183.336 76.375 182.49 76.375 181.625C76.375 180.465 75.9141 179.352 75.0936 178.531C74.2731 177.711 73.1603 177.25 72 177.25Z" fill="white"/>
<path d="M78.25 194.75H77V191.625C77 191.215 76.9192 190.808 76.7621 190.429C76.6051 190.05 76.3749 189.705 76.0847 189.415C75.7945 189.125 75.45 188.895 75.0709 188.738C74.6917 188.581 74.2854 188.5 73.875 188.5H70.125C69.2962 188.5 68.5013 188.829 67.9153 189.415C67.3292 190.001 67 190.796 67 191.625V194.75H65.75V191.625C65.75 190.465 66.2109 189.352 67.0314 188.531C67.8519 187.711 68.9647 187.25 70.125 187.25H73.875C75.0353 187.25 76.1481 187.711 76.9686 188.531C77.7891 189.352 78.25 190.465 78.25 191.625V194.75Z" fill="white"/>
<text fill="black" xml:space="preserve" style="white-space: pre" font-family="IBM Plex Sans" font-size="14" font-weight="600" letter-spacing="0.16px"><tspan x="53.2093" y="232.25">Users</tspan></text>
<rect width="102" height="74" transform="translate(21 304)" fill="white" style="mix-blend-mode:multiply"/>
<rect width="48" height="48" transform="translate(48 304)" fill="#8D8D8D"/>
<rect width="20" height="20" transform="translate(62 318)" fill="white" style="mix-blend-mode:multiply"/>
<path d="M67 320.5V323H64.5V320.5H67ZM68.25 319.25H63.25V324.25H68.25V319.25ZM73.25 320.5V323H70.75V320.5H73.25ZM74.5 319.25H69.5V324.25H74.5V319.25ZM79.5 320.5V323H77V320.5H79.5ZM80.75 319.25H75.75V324.25H80.75V319.25ZM67 326.75V329.25H64.5V326.75H67ZM68.25 325.5H63.25V330.5H68.25V325.5ZM73.25 326.75V329.25H70.75V326.75H73.25ZM74.5 325.5H69.5V330.5H74.5V325.5ZM79.5 326.75V329.25H77V326.75H79.5ZM80.75 325.5H75.75V330.5H80.75V325.5ZM67 333V335.5H64.5V333H67ZM68.25 331.75H63.25V336.75H68.25V331.75ZM73.25 333V335.5H70.75V333H73.25ZM74.5 331.75H69.5V336.75H74.5V331.75ZM79.5 333V335.5H77V333H79.5ZM80.75 331.75H75.75V336.75H80.75V331.75Z" fill="white"/>
<text fill="black" xml:space="preserve" style="white-space: pre" font-family="IBM Plex Sans" font-size="14" font-weight="600" letter-spacing="0.16px"><tspan x="24.5987" y="374.25">App or service</tspan></text>
<rect width="72" height="92" transform="translate(270 234)" fill="white" style="mix-blend-mode:multiply"/>
<rect width="48" height="48" transform="translate(282 234)" fill="#8D8D8D"/>
<g clip-path="url(#clip0_659_37968)">
<path d="M311.363 256.532C310.742 255.368 309.759 254.438 308.563 253.881C307.367 253.324 306.022 253.172 304.731 253.446C303.441 253.72 302.275 254.407 301.408 255.402C300.542 256.397 300.023 257.647 299.929 258.963C298.855 259.078 297.867 259.6 297.168 260.422C296.468 261.244 296.11 262.303 296.167 263.381C296.224 264.459 296.692 265.473 297.475 266.217C298.258 266.96 299.296 267.375 300.375 267.376H310.375C311.739 267.377 313.055 266.867 314.063 265.948C315.071 265.028 315.698 263.764 315.822 262.405C315.946 261.046 315.557 259.69 314.732 258.604C313.907 257.517 312.705 256.778 311.363 256.532ZM310.375 266.438H300.375C299.543 266.44 298.742 266.126 298.134 265.558C297.526 264.991 297.157 264.214 297.101 263.384C297.046 262.554 297.308 261.735 297.835 261.091C298.362 260.448 299.113 260.029 299.938 259.92C300.004 260.747 300.239 261.552 300.628 262.285C300.656 262.341 300.695 262.391 300.742 262.431C300.79 262.472 300.845 262.502 300.905 262.521C300.965 262.54 301.028 262.547 301.09 262.541C301.152 262.535 301.213 262.517 301.268 262.487C301.323 262.458 301.372 262.417 301.411 262.369C301.45 262.32 301.479 262.264 301.497 262.204C301.514 262.144 301.519 262.081 301.512 262.018C301.504 261.956 301.484 261.896 301.453 261.842C300.834 260.684 300.68 259.333 301.022 258.065C301.365 256.796 302.179 255.707 303.298 255.019C304.416 254.33 305.755 254.095 307.042 254.36C308.328 254.625 309.465 255.372 310.22 256.447C309.471 256.467 308.734 256.642 308.055 256.959C307.376 257.276 306.77 257.729 306.273 258.291C306.231 258.336 306.198 258.39 306.177 258.449C306.156 258.508 306.146 258.57 306.15 258.632C306.153 258.695 306.168 258.756 306.196 258.812C306.223 258.868 306.261 258.918 306.308 258.96C306.354 259.001 306.409 259.032 306.468 259.052C306.527 259.072 306.59 259.08 306.652 259.076C306.714 259.071 306.775 259.054 306.831 259.026C306.886 258.997 306.936 258.958 306.976 258.911C307.477 258.343 308.112 257.909 308.823 257.65C309.535 257.391 310.3 257.314 311.048 257.426C311.797 257.539 312.506 257.837 313.11 258.294C313.713 258.751 314.193 259.352 314.505 260.042C314.816 260.733 314.95 261.49 314.893 262.245C314.837 263 314.592 263.729 314.182 264.365C313.771 265.001 313.207 265.524 312.542 265.886C311.877 266.249 311.132 266.438 310.375 266.438Z" fill="white"/>
<path d="M315.936 254.41C315.905 254.356 315.864 254.309 315.814 254.271C315.765 254.233 315.709 254.205 315.648 254.189C315.588 254.173 315.526 254.169 315.464 254.177C315.402 254.185 315.342 254.206 315.289 254.237L313.401 255.327C313.346 255.357 313.297 255.398 313.258 255.447C313.218 255.497 313.189 255.554 313.172 255.615C313.155 255.675 313.15 255.739 313.158 255.802C313.166 255.864 313.186 255.925 313.218 255.98C313.249 256.034 313.292 256.082 313.342 256.12C313.392 256.159 313.45 256.186 313.511 256.202C313.572 256.218 313.636 256.221 313.698 256.212C313.761 256.202 313.821 256.181 313.875 256.148L315.762 255.058C315.871 254.995 315.951 254.892 315.983 254.77C316.016 254.649 315.999 254.519 315.936 254.41Z" fill="white"/>
<path d="M310.173 252.92C310.227 252.951 310.286 252.971 310.348 252.979C310.41 252.987 310.472 252.983 310.532 252.967C310.593 252.951 310.649 252.923 310.698 252.885C310.748 252.847 310.789 252.8 310.82 252.746L311.91 250.859C311.972 250.75 311.988 250.621 311.955 250.5C311.923 250.38 311.843 250.277 311.735 250.214C311.627 250.151 311.498 250.134 311.377 250.166C311.256 250.198 311.152 250.277 311.089 250.384L309.999 252.272C309.936 252.381 309.919 252.51 309.952 252.632C309.984 252.753 310.064 252.857 310.173 252.92Z" fill="white"/>
<path d="M306 251.802C306.126 251.802 306.246 251.752 306.335 251.663C306.424 251.574 306.474 251.453 306.474 251.327V249.148C306.475 249.085 306.463 249.023 306.44 248.965C306.416 248.906 306.381 248.853 306.337 248.809C306.293 248.764 306.241 248.729 306.183 248.705C306.125 248.68 306.063 248.668 306 248.668C305.937 248.668 305.875 248.68 305.817 248.705C305.759 248.729 305.707 248.764 305.663 248.809C305.619 248.853 305.584 248.906 305.56 248.965C305.537 249.023 305.525 249.085 305.526 249.148V251.327C305.526 251.453 305.576 251.574 305.665 251.663C305.754 251.752 305.874 251.802 306 251.802Z" fill="white"/>
<path d="M301.179 252.746C301.243 252.854 301.346 252.932 301.467 252.964C301.588 252.996 301.717 252.979 301.825 252.917C301.934 252.854 302.013 252.751 302.046 252.63C302.079 252.51 302.062 252.381 302.001 252.272L300.911 250.384C300.88 250.33 300.839 250.282 300.789 250.244C300.74 250.205 300.683 250.177 300.623 250.161C300.562 250.144 300.499 250.14 300.437 250.148C300.375 250.156 300.315 250.176 300.261 250.208C300.207 250.239 300.16 250.281 300.122 250.33C300.084 250.38 300.056 250.437 300.04 250.497C300.024 250.558 300.02 250.621 300.029 250.683C300.037 250.745 300.058 250.805 300.09 250.859L301.179 252.746Z" fill="white"/>
<path d="M298.599 255.327L296.711 254.237C296.658 254.205 296.598 254.184 296.536 254.176C296.474 254.167 296.411 254.171 296.35 254.187C296.29 254.203 296.233 254.231 296.183 254.269C296.134 254.307 296.092 254.354 296.061 254.408C296.029 254.463 296.009 254.522 296.001 254.585C295.993 254.647 295.997 254.71 296.014 254.77C296.03 254.83 296.058 254.887 296.097 254.936C296.135 254.986 296.183 255.027 296.237 255.058L298.125 256.148C298.179 256.18 298.239 256.2 298.301 256.209C298.363 256.217 298.426 256.213 298.486 256.198C298.547 256.182 298.603 256.154 298.653 256.116C298.703 256.078 298.744 256.03 298.776 255.976C298.807 255.922 298.827 255.862 298.835 255.8C298.843 255.738 298.839 255.675 298.823 255.615C298.806 255.554 298.778 255.498 298.74 255.448C298.701 255.399 298.653 255.357 298.599 255.327Z" fill="white"/>
</g>
<text fill="black" xml:space="preserve" style="white-space: pre" font-family="IBM Plex Sans" font-size="14" font-weight="600" letter-spacing="0.16px"><tspan x="271.504" y="304.25">IBM Cloud </tspan><tspan x="282.257" y="322.25">service</tspan></text>
<rect width="56" height="92" transform="translate(512 234)" fill="white" style="mix-blend-mode:multiply"/>
<rect width="48" height="48" transform="translate(516 234)" fill="#24A148"/>
<rect width="20" height="20" transform="translate(530 248)" fill="white" style="mix-blend-mode:multiply"/>
<path d="M547.5 251.75H536.25V253H547.5V251.75Z" fill="white"/>
<path d="M547.5 263H536.25V264.25H547.5V263Z" fill="white"/>
<path d="M547.5 257.375H536.25V258.625H547.5V257.375Z" fill="white"/>
<path d="M533.75 257.375H532.5V258.625H533.75V257.375Z" fill="white"/>
<path d="M533.75 251.75H532.5V253H533.75V251.75Z" fill="white"/>
<path d="M533.75 263H532.5V264.25H533.75V263Z" fill="white"/>
<text fill="black" xml:space="preserve" style="white-space: pre" font-family="IBM Plex Sans" font-size="14" font-weight="600" letter-spacing="0.16px"><tspan x="511.927" y="304.25">Auditing </tspan><tspan x="518.012" y="322.25">events</tspan></text>
<rect width="192" height="92" transform="translate(678 234)" fill="white" style="mix-blend-mode:multiply"/>
<rect width="48" height="48" transform="translate(750 234)" fill="#24A148"/>
<rect width="20" height="20" transform="translate(764 248)" fill="white" style="mix-blend-mode:multiply"/>
<path d="M781.5 258V261.75H766.5V251.75H774V250.5H766.5C766.168 250.5 765.851 250.632 765.616 250.866C765.382 251.101 765.25 251.418 765.25 251.75V261.75C765.25 262.082 765.382 262.399 765.616 262.634C765.851 262.868 766.168 263 766.5 263H771.5V265.5H769V266.75H779V265.5H776.5V263H781.5C781.832 263 782.149 262.868 782.384 262.634C782.618 262.399 782.75 262.082 782.75 261.75V258H781.5ZM775.25 265.5H772.75V263H775.25V265.5Z" fill="white"/>
<path d="M777.125 257.375L774 254.275L774.994 253.294L777.125 255.406L781.756 250.812L782.75 251.8L777.125 257.375Z" fill="white"/>
<text fill="black" xml:space="preserve" style="white-space: pre" font-family="IBM Plex Sans" font-size="14" font-weight="600" letter-spacing="0.16px"><tspan x="685.847" y="304.25">IBM Cloud Activity Tracker</tspan></text>
<text fill="black" xml:space="preserve" style="white-space: pre" font-family="IBM Plex Sans" font-size="14" letter-spacing="0.16px"><tspan x="708.213" y="322.25">Hosted event search</tspan></text>
<rect width="56" height="74" transform="translate(980 234)" fill="white" style="mix-blend-mode:multiply"/>
<rect width="48" height="48" transform="translate(984 234)" fill="#8D8D8D"/>
<rect width="20" height="20" transform="translate(998 248)" fill="white" style="mix-blend-mode:multiply"/>
<path d="M1008 249.25C1006.27 249.25 1004.58 249.763 1003.14 250.725C1001.7 251.686 1000.58 253.053 999.916 254.652C999.254 256.25 999.081 258.01 999.418 259.707C999.756 261.404 1000.59 262.963 1001.81 264.187C1003.04 265.411 1004.6 266.244 1006.29 266.582C1007.99 266.919 1009.75 266.746 1011.35 266.084C1012.95 265.422 1014.31 264.3 1015.28 262.861C1016.24 261.422 1016.75 259.731 1016.75 258C1016.75 255.679 1015.83 253.454 1014.19 251.813C1012.55 250.172 1010.32 249.25 1008 249.25V249.25ZM1015.5 257.375H1011.75C1011.68 255.073 1011.08 252.818 1010.01 250.781C1011.49 251.186 1012.81 252.036 1013.79 253.215C1014.77 254.394 1015.37 255.846 1015.5 257.375V257.375ZM1008 265.5C1007.86 265.509 1007.72 265.509 1007.58 265.5C1006.29 263.435 1005.57 261.061 1005.5 258.625H1010.5C1010.44 261.06 1009.73 263.433 1008.44 265.5C1008.29 265.51 1008.15 265.51 1008 265.5ZM1005.5 257.375C1005.56 254.94 1006.27 252.567 1007.56 250.5C1007.84 250.469 1008.12 250.469 1008.4 250.5C1009.7 252.563 1010.43 254.937 1010.5 257.375H1005.5ZM1005.98 250.781C1004.91 252.82 1004.32 255.075 1004.25 257.375H1000.5C1000.63 255.846 1001.23 254.394 1002.21 253.215C1003.19 252.036 1004.51 251.186 1005.99 250.781H1005.98ZM1000.53 258.625H1004.28C1004.35 260.925 1004.93 263.18 1006 265.219C1004.52 264.809 1003.21 263.958 1002.23 262.779C1001.25 261.601 1000.66 260.151 1000.53 258.625V258.625ZM1010.01 265.219C1011.08 263.182 1011.68 260.927 1011.75 258.625H1015.5C1015.37 260.154 1014.77 261.606 1013.79 262.785C1012.81 263.964 1011.49 264.814 1010.01 265.219Z" fill="white"/>
<text fill="black" xml:space="preserve" style="white-space: pre" font-family="IBM Plex Sans" font-size="14" font-weight="600" letter-spacing="0.16px"><tspan x="983.565" y="304.25">Web UI</tspan></text>
<rect width="82" height="8" transform="translate(200 254)" fill="white" style="mix-blend-mode:multiply"/>
<path d="M200 258H274" stroke="black"/>
<path d="M274 254L282 258L274 262V254Z" fill="black"/>
<rect width="186" height="8" transform="translate(330 254)" fill="white" style="mix-blend-mode:multiply"/>
<path d="M330 258H508" stroke="black"/>
<path d="M508 254L516 258L508 262V254Z" fill="black"/>
<rect width="186" height="8" transform="translate(564 254)" fill="white" style="mix-blend-mode:multiply"/>
<path d="M564 258H742" stroke="black"/>
<path d="M742 254L750 258L742 262V254Z" fill="black"/>
<rect width="186" height="8" transform="translate(798 254)" fill="white" style="mix-blend-mode:multiply"/>
<path d="M798 258H976" stroke="black"/>
<path d="M976 254L984 258L976 262V254Z" fill="black"/>
<rect width="104" height="68" transform="matrix(-1 0 0 1 200 186)" fill="white" style="mix-blend-mode:multiply"/>
<path d="M96 186H192C196.418 186 200 189.582 200 194V254" stroke="black"/>
<rect width="104" height="76" transform="matrix(-1 0 0 -1 200 330)" fill="white" style="mix-blend-mode:multiply"/>
<path d="M96 330H192C196.418 330 200 326.418 200 322V254" stroke="black"/>
<rect x="115.5" y="178.5" width="65" height="15" rx="7.5" fill="white"/>
<text fill="black" xml:space="preserve" style="white-space: pre" font-family="IBM Plex Sans" font-size="12" letter-spacing="0.32px"><tspan x="123" y="189.5">API calls</tspan></text>
<rect x="115.5" y="178.5" width="65" height="15" rx="7.5" stroke="black"/>
<rect x="115.5" y="320.5" width="65" height="15" rx="7.5" fill="white"/>
<text fill="black" xml:space="preserve" style="white-space: pre" font-family="IBM Plex Sans" font-size="12" letter-spacing="0.32px"><tspan x="123" y="331.5">API calls</tspan></text>
<rect x="115.5" y="320.5" width="65" height="15" rx="7.5" stroke="black"/>
<defs>
<clipPath id="clip0_659_37968">
<rect width="20" height="20" fill="white" transform="translate(296 248)"/>
</clipPath>
</defs>
</svg>
