<svg width="1080" height="810" viewBox="0 0 1080 810" fill="none" xmlns="http://www.w3.org/2000/svg">
<rect width="1080" height="810" fill="#F4F4F4"/>
<rect width="1080" height="810" fill="#F4F4F4"/>
<path d="M48.5 44.5H556C560.142 44.5 563.5 47.8579 563.5 52V758C563.5 762.142 560.142 765.5 556 765.5H48.5V44.5Z" fill="white"/>
<path d="M49 45H556C559.866 45 563 48.134 563 52V758C563 761.866 559.866 765 556 765H49V45Z" fill="#F4F4F4"/>
<g clip-path="url(#clip0_794_39451)">
<text fill="black" xml:space="preserve" style="white-space: pre" font-family="IBM Plex Sans" font-size="14" font-weight="600" letter-spacing="0.16px"><tspan x="100" y="73.25">Customer managed</tspan></text>
<path d="M74 60.5C74.6181 60.5 75.2223 60.6833 75.7362 61.0267C76.2501 61.37 76.6506 61.8581 76.8871 62.4291C77.1236 63.0001 77.1855 63.6285 77.065 64.2347C76.9444 64.8408 76.6467 65.3977 76.2097 65.8347C75.7727 66.2717 75.2158 66.5694 74.6097 66.69C74.0035 66.8105 73.3751 66.7486 72.8041 66.5121C72.2331 66.2756 71.745 65.8751 71.4017 65.3612C71.0583 64.8473 70.875 64.2431 70.875 63.625C70.875 62.7962 71.2042 62.0013 71.7903 61.4153C72.3763 60.8292 73.1712 60.5 74 60.5ZM74 59.25C73.1347 59.25 72.2888 59.5066 71.5694 59.9873C70.8499 60.4681 70.2892 61.1513 69.958 61.9508C69.6269 62.7502 69.5403 63.6299 69.7091 64.4785C69.8779 65.3272 70.2946 66.1067 70.9064 66.7186C71.5183 67.3304 72.2978 67.7471 73.1465 67.9159C73.9951 68.0847 74.8748 67.9981 75.6742 67.667C76.4737 67.3358 77.1569 66.7751 77.6377 66.0556C78.1184 65.3362 78.375 64.4903 78.375 63.625C78.375 62.4647 77.9141 61.3519 77.0936 60.5314C76.2731 59.7109 75.1603 59.25 74 59.25Z" fill="#161616"/>
<path d="M80.25 76.75H79V73.625C79 73.2146 78.9192 72.8083 78.7621 72.4291C78.6051 72.05 78.3749 71.7055 78.0847 71.4153C77.7945 71.1251 77.45 70.8949 77.0709 70.7379C76.6917 70.5808 76.2854 70.5 75.875 70.5H72.125C71.2962 70.5 70.5013 70.8292 69.9153 71.4153C69.3292 72.0013 69 72.7962 69 73.625V76.75H67.75V73.625C67.75 72.4647 68.2109 71.3519 69.0314 70.5314C69.8519 69.7109 70.9647 69.25 72.125 69.25H75.875C77.0353 69.25 78.1481 69.7109 78.9686 70.5314C79.7891 71.3519 80.25 72.4647 80.25 73.625V76.75Z" fill="#161616"/>
<line x1="50" y1="44" x2="50" y2="92" stroke="#8D8D8D" stroke-width="4"/>
</g>
<path d="M48.5 44.5H556C560.142 44.5 563.5 47.8579 563.5 52V758C563.5 762.142 560.142 765.5 556 765.5H48.5V44.5Z" stroke="#8D8D8D"/>
<path d="M612.5 44.5H1024C1028.14 44.5 1031.5 47.8579 1031.5 52V658C1031.5 662.142 1028.14 665.5 1024 665.5H612.5V44.5Z" fill="white"/>
<path d="M613 45H1024C1027.87 45 1031 48.134 1031 52V658C1031 661.866 1027.87 665 1024 665H613V45Z" fill="#EDF5FF"/>
<g clip-path="url(#clip1_794_39451)">
<text fill="black" xml:space="preserve" style="white-space: pre" font-family="IBM Plex Sans" font-size="14" font-weight="600" letter-spacing="0.16px"><tspan x="664" y="73.25">IBM managed</tspan></text>
<path d="M638 64.25C637.005 64.25 636.052 64.6451 635.348 65.3484C634.645 66.0516 634.25 67.0054 634.25 68V73C634.25 73.9946 634.645 74.9484 635.348 75.6517C636.052 76.3549 637.005 76.75 638 76.75C638.995 76.75 639.948 76.3549 640.652 75.6517C641.355 74.9484 641.75 73.9946 641.75 73V68C641.75 67.0054 641.355 66.0516 640.652 65.3484C639.948 64.6451 638.995 64.25 638 64.25ZM635.344 69.1688H640.656V71.825H635.344V69.1688ZM638 75.6563C637.297 75.653 636.623 75.3721 636.125 74.8746C635.628 74.3772 635.347 73.7035 635.344 73V72.9188H640.656V73C640.653 73.7035 640.372 74.3772 639.875 74.8746C639.377 75.3721 638.703 75.653 638 75.6563ZM640.656 68.075H635.344V68C635.344 67.2955 635.624 66.6199 636.122 66.1217C636.62 65.6236 637.296 65.3438 638 65.3438C638.704 65.3438 639.38 65.6236 639.878 66.1217C640.376 66.6199 640.656 67.2955 640.656 68V68.075Z" fill="black"/>
<path d="M647.162 70.0063L643 66.125V71.8125C643 72.4755 643.263 73.1114 643.732 73.5803C644.201 74.0491 644.837 74.3125 645.5 74.3125C646.163 74.3125 646.799 74.0491 647.268 73.5803C647.737 73.1114 648 72.4755 648 71.8125C647.998 71.469 647.922 71.1298 647.778 70.8182C647.633 70.5065 647.424 70.2296 647.162 70.0063ZM645.5 73.2188C645.127 73.2188 644.769 73.0706 644.506 72.8069C644.242 72.5431 644.094 72.1855 644.094 71.8125V68.625L646.419 70.7938C646.559 70.9114 646.672 71.0576 646.75 71.2225C646.829 71.3874 646.872 71.5673 646.875 71.75C646.883 71.9373 646.854 72.1243 646.789 72.3001C646.724 72.476 646.625 72.637 646.497 72.7739C646.369 72.9107 646.214 73.0206 646.043 73.097C645.872 73.1734 645.687 73.2148 645.5 73.2188Z" fill="black"/>
<path d="M628 71.8125C628 72.4755 628.263 73.1114 628.732 73.5803C629.201 74.0491 629.837 74.3125 630.5 74.3125C631.163 74.3125 631.799 74.0491 632.268 73.5803C632.737 73.1114 633 72.4755 633 71.8125V66.125L628.838 70.0063C628.578 70.2309 628.369 70.5081 628.225 70.8195C628.08 71.1308 628.004 71.4693 628 71.8125ZM629.55 70.8375L631.906 68.625V71.8125C631.906 72.1855 631.758 72.5431 631.494 72.8069C631.231 73.0706 630.873 73.2188 630.5 73.2188C630.127 73.2188 629.769 73.0706 629.506 72.8069C629.242 72.5431 629.094 72.1855 629.094 71.8125C629.095 71.6266 629.136 71.4431 629.215 71.2748C629.293 71.1064 629.408 70.9572 629.55 70.8375Z" fill="black"/>
<path d="M637.375 61.4375C637.375 61.0049 637.247 60.5819 637.006 60.2222C636.766 59.8625 636.424 59.5821 636.025 59.4165C635.625 59.2509 635.185 59.2076 634.761 59.292C634.336 59.3764 633.947 59.5848 633.641 59.8907C633.335 60.1966 633.126 60.5864 633.042 61.0107C632.958 61.4351 633.001 61.8749 633.167 62.2746C633.332 62.6743 633.612 63.016 633.972 63.2563C634.332 63.4967 634.755 63.625 635.188 63.625C635.768 63.625 636.324 63.3945 636.734 62.9843C637.145 62.5741 637.375 62.0177 637.375 61.4375ZM634.094 61.4375C634.094 61.2212 634.158 61.0097 634.278 60.8298C634.398 60.65 634.569 60.5098 634.769 60.427C634.969 60.3442 635.189 60.3226 635.401 60.3648C635.613 60.407 635.808 60.5111 635.961 60.6641C636.114 60.8171 636.218 61.012 636.26 61.2241C636.302 61.4363 636.281 61.6562 636.198 61.8561C636.115 62.0559 635.975 62.2267 635.795 62.3469C635.615 62.4671 635.404 62.5313 635.188 62.5313C634.898 62.528 634.622 62.4117 634.418 62.2073C634.213 62.0029 634.097 61.7266 634.094 61.4375Z" fill="black"/>
<path d="M640.812 59.25C640.38 59.25 639.957 59.3783 639.597 59.6187C639.237 59.859 638.957 60.2007 638.792 60.6004C638.626 61.0001 638.583 61.4399 638.667 61.8643C638.751 62.2886 638.96 62.6784 639.266 62.9843C639.572 63.2902 639.961 63.4986 640.386 63.583C640.81 63.6674 641.25 63.6241 641.65 63.4585C642.049 63.2929 642.391 63.0125 642.631 62.6528C642.872 62.2931 643 61.8701 643 61.4375C643 60.8573 642.77 60.3009 642.359 59.8907C641.949 59.4805 641.393 59.25 640.812 59.25ZM640.812 62.5313C640.596 62.5313 640.385 62.4671 640.205 62.3469C640.025 62.2267 639.885 62.0559 639.802 61.8561C639.719 61.6562 639.698 61.4363 639.74 61.2241C639.782 61.012 639.886 60.8171 640.039 60.6641C640.192 60.5111 640.387 60.407 640.599 60.3648C640.811 60.3226 641.031 60.3442 641.231 60.427C641.431 60.5098 641.602 60.65 641.722 60.8298C641.842 61.0097 641.906 61.2212 641.906 61.4375C641.903 61.7266 641.787 62.0029 641.582 62.2073C641.378 62.4117 641.102 62.528 640.812 62.5313Z" fill="black"/>
<line x1="614" y1="44" x2="614" y2="92" stroke="#0F62FE" stroke-width="4"/>
</g>
<path d="M612.5 44.5H1024C1028.14 44.5 1031.5 47.8579 1031.5 52V658C1031.5 662.142 1028.14 665.5 1024 665.5H612.5V44.5Z" stroke="#0F62FE"/>
<rect x="64.5" y="108.5" width="951" height="541" fill="white"/>
<g clip-path="url(#clip2_794_39451)">
<text fill="black" xml:space="preserve" style="white-space: pre" font-family="IBM Plex Sans" font-size="14" font-weight="600" letter-spacing="0.16px"><tspan x="116" y="128.25">IBM Cloud</tspan></text>
<text fill="black" xml:space="preserve" style="white-space: pre" font-family="IBM Plex Sans" font-size="14" letter-spacing="0.16px"><tspan x="116" y="146.25">Account</tspan></text>
<g clip-path="url(#clip3_794_39451)">
<rect width="20" height="20" transform="translate(80 122)" fill="white" style="mix-blend-mode:multiply"/>
<path d="M95.3627 130.532C94.7416 129.368 93.7588 128.438 92.5627 127.881C91.3666 127.324 90.0219 127.172 88.7314 127.446C87.4409 127.72 86.2746 128.407 85.4083 129.402C84.542 130.397 84.0227 131.647 83.9286 132.963C82.8555 133.078 81.8673 133.6 81.1676 134.422C80.4679 135.244 80.1097 136.303 80.1669 137.381C80.2241 138.459 80.6922 139.473 81.4749 140.217C82.2577 140.96 83.2955 141.375 84.3749 141.376H94.3749C95.7394 141.377 97.055 140.867 98.063 139.948C99.0709 139.028 99.6985 137.764 99.8223 136.405C99.9461 135.046 99.5572 133.69 98.732 132.604C97.9068 131.517 96.705 130.778 95.3627 130.532ZM94.3749 140.438H84.3749C83.5434 140.44 82.7423 140.126 82.1343 139.558C81.5263 138.991 81.157 138.214 81.1014 137.384C81.0458 136.554 81.308 135.735 81.8348 135.091C82.3616 134.448 83.1135 134.029 83.9378 133.92C84.0039 134.747 84.2387 135.552 84.6276 136.285C84.6557 136.341 84.6948 136.391 84.7425 136.431C84.7901 136.472 84.8454 136.502 84.9051 136.521C84.9648 136.54 85.0276 136.547 85.0899 136.541C85.1522 136.535 85.2127 136.517 85.2678 136.487C85.323 136.458 85.3716 136.417 85.4109 136.369C85.4502 136.32 85.4794 136.264 85.4967 136.204C85.514 136.144 85.519 136.081 85.5116 136.018C85.5042 135.956 85.4844 135.896 85.4534 135.842C84.8338 134.684 84.6797 133.333 85.0224 132.065C85.3651 130.796 86.1789 129.707 87.2975 129.019C88.4162 128.33 89.7555 128.095 91.0419 128.36C92.3284 128.625 93.4651 129.372 94.2199 130.447C93.4708 130.467 92.734 130.642 92.055 130.959C91.3761 131.276 90.7696 131.729 90.273 132.291C90.2307 132.336 90.198 132.39 90.1769 132.449C90.1557 132.508 90.1464 132.57 90.1496 132.632C90.1529 132.695 90.1685 132.756 90.1956 132.812C90.2228 132.868 90.2608 132.918 90.3076 132.96C90.3544 133.001 90.409 133.032 90.4681 133.052C90.5273 133.072 90.5898 133.08 90.652 133.076C90.7143 133.071 90.775 133.054 90.8306 133.026C90.8862 132.997 90.9356 132.958 90.9758 132.911C91.4766 132.343 92.1117 131.909 92.8231 131.65C93.5346 131.391 94.2996 131.314 95.0484 131.426C95.7972 131.539 96.5059 131.837 97.1096 132.294C97.7133 132.751 98.1929 133.352 98.5046 134.042C98.8162 134.733 98.9499 135.49 98.8934 136.245C98.837 137 98.5922 137.729 98.1815 138.365C97.7708 139.001 97.2072 139.524 96.5422 139.886C95.8772 140.249 95.1321 140.438 94.3749 140.438Z" fill="black"/>
<path d="M99.9363 128.41C99.9052 128.356 99.8638 128.309 99.8144 128.271C99.765 128.233 99.7086 128.205 99.6484 128.189C99.5883 128.173 99.5255 128.169 99.4638 128.177C99.402 128.185 99.3425 128.206 99.2886 128.237L97.4011 129.327C97.3457 129.357 97.2968 129.398 97.2575 129.447C97.2182 129.497 97.1891 129.554 97.1721 129.615C97.155 129.675 97.1503 129.739 97.1582 129.802C97.166 129.864 97.1863 129.925 97.2179 129.98C97.2495 130.034 97.2917 130.082 97.342 130.12C97.3923 130.159 97.4498 130.186 97.511 130.202C97.5722 130.218 97.6359 130.221 97.6984 130.212C97.7609 130.202 97.8209 130.181 97.8749 130.148L99.7624 129.058C99.8713 128.995 99.9509 128.892 99.9835 128.77C100.016 128.649 99.9992 128.519 99.9363 128.41Z" fill="black"/>
<path d="M94.1726 126.92C94.2266 126.951 94.2861 126.971 94.3478 126.979C94.4096 126.987 94.4723 126.983 94.5325 126.967C94.5926 126.951 94.649 126.923 94.6984 126.885C94.7478 126.847 94.7893 126.8 94.8204 126.746L95.9103 124.859C95.972 124.75 95.9883 124.621 95.9554 124.5C95.9226 124.38 95.8434 124.277 95.735 124.214C95.6266 124.151 95.4979 124.134 95.3769 124.166C95.2559 124.198 95.1524 124.277 95.089 124.384L93.9991 126.272C93.9363 126.381 93.9192 126.51 93.9518 126.632C93.9843 126.753 94.0638 126.857 94.1726 126.92Z" fill="black"/>
<path d="M89.9999 125.802C90.1257 125.802 90.2463 125.752 90.3352 125.663C90.4241 125.574 90.4741 125.453 90.4741 125.327V123.148C90.4749 123.085 90.4631 123.023 90.4396 122.965C90.4161 122.906 90.3813 122.853 90.3372 122.809C90.2931 122.764 90.2406 122.729 90.1827 122.705C90.1248 122.68 90.0627 122.668 89.9999 122.668C89.9372 122.668 89.8751 122.68 89.8172 122.705C89.7593 122.729 89.7068 122.764 89.6627 122.809C89.6186 122.853 89.5837 122.906 89.5602 122.965C89.5367 123.023 89.525 123.085 89.5257 123.148V125.327C89.5257 125.453 89.5757 125.574 89.6646 125.663C89.7535 125.752 89.8741 125.802 89.9999 125.802Z" fill="black"/>
<path d="M85.1795 126.746C85.2429 126.854 85.3463 126.932 85.4673 126.964C85.5883 126.996 85.7171 126.979 85.8254 126.917C85.9338 126.854 86.0131 126.751 86.0459 126.63C86.0787 126.51 86.0625 126.381 86.0007 126.272L84.9108 124.384C84.88 124.33 84.8386 124.282 84.7892 124.244C84.7397 124.205 84.6832 124.177 84.6228 124.161C84.5625 124.144 84.4994 124.14 84.4374 124.148C84.3753 124.156 84.3155 124.176 84.2613 124.208C84.2071 124.239 84.1597 124.281 84.1217 124.33C84.0837 124.38 84.0559 124.437 84.0399 124.497C84.024 124.558 84.0201 124.621 84.0287 124.683C84.0372 124.745 84.0579 124.805 84.0896 124.859L85.1795 126.746Z" fill="black"/>
<path d="M82.599 129.327L80.7115 128.237C80.6575 128.205 80.5978 128.184 80.5358 128.176C80.4738 128.167 80.4108 128.171 80.3503 128.187C80.2898 128.203 80.233 128.231 80.1833 128.269C80.1336 128.307 80.0919 128.354 80.0606 128.408C80.0293 128.463 80.0091 128.522 80.001 128.585C79.993 128.647 79.9973 128.71 80.0137 128.77C80.0301 128.83 80.0583 128.887 80.0967 128.936C80.135 128.986 80.1828 129.027 80.2372 129.058L82.1249 130.148C82.1788 130.18 82.2385 130.2 82.3005 130.209C82.3625 130.217 82.4256 130.213 82.4861 130.198C82.5466 130.182 82.6033 130.154 82.653 130.116C82.7027 130.078 82.7444 130.03 82.7757 129.976C82.807 129.922 82.8273 129.862 82.8353 129.8C82.8434 129.738 82.8391 129.675 82.8227 129.615C82.8063 129.554 82.7781 129.498 82.7397 129.448C82.7013 129.399 82.6534 129.357 82.599 129.327Z" fill="black"/>
</g>
<line x1="66" y1="108" x2="66" y2="156" stroke="#8D8D8D" stroke-width="4"/>
</g>
<rect x="64.5" y="108.5" width="951" height="541" stroke="#8D8D8D"/>
<rect x="640.5" y="172.5" width="359" height="285" fill="white"/>
<rect x="641" y="173" width="358" height="284" fill="#DEFBE6"/>
<g clip-path="url(#clip4_794_39451)">
<text fill="black" xml:space="preserve" style="white-space: pre" font-family="IBM Plex Sans" font-size="14" font-weight="600" letter-spacing="0.16px"><tspan x="704" y="201.25">IBM Cloud Activity Tracker Service</tspan></text>
<rect width="48" height="48" transform="translate(640 172)" fill="#24A148"/>
<rect width="20" height="20" transform="translate(654 186)" fill="white" style="mix-blend-mode:multiply"/>
<path d="M671.5 196V199.75H656.5V189.75H664V188.5H656.5C656.168 188.5 655.851 188.632 655.616 188.866C655.382 189.101 655.25 189.418 655.25 189.75V199.75C655.25 200.082 655.382 200.399 655.616 200.634C655.851 200.868 656.168 201 656.5 201H661.5V203.5H659V204.75H669V203.5H666.5V201H671.5C671.832 201 672.149 200.868 672.384 200.634C672.618 200.399 672.75 200.082 672.75 199.75V196H671.5ZM665.25 203.5H662.75V201H665.25V203.5Z" fill="white"/>
<path d="M667.125 195.375L664 192.275L664.994 191.294L667.125 193.406L671.756 188.812L672.75 189.8L667.125 195.375Z" fill="white"/>
</g>
<rect x="640.5" y="172.5" width="359" height="285" stroke="#24A148"/>
<g opacity="0.25">
<rect width="1" height="540" transform="translate(563 109)" fill="white" style="mix-blend-mode:multiply"/>
<rect width="540" height="0" transform="matrix(0 -1 1 0 563.5 649)" fill="white" style="mix-blend-mode:multiply"/>
<path d="M563.5 649V109" stroke="black" stroke-dasharray="4 4"/>
</g>
<g opacity="0.25">
<rect width="1" height="540" transform="translate(612 109)" fill="white" style="mix-blend-mode:multiply"/>
<rect width="540" height="0" transform="matrix(0 -1 1 0 612.5 649)" fill="white" style="mix-blend-mode:multiply"/>
<path d="M612.5 649V109" stroke="black" stroke-dasharray="4 4"/>
</g>
<rect width="192" height="92" transform="translate(274 236)" fill="white" style="mix-blend-mode:multiply"/>
<rect width="48" height="48" transform="translate(346 236)" fill="#24A148"/>
<rect width="20" height="20" transform="translate(360 250)" fill="white" style="mix-blend-mode:multiply"/>
<path d="M377.5 260V263.75H362.5V253.75H370V252.5H362.5C362.168 252.5 361.851 252.632 361.616 252.866C361.382 253.101 361.25 253.418 361.25 253.75V263.75C361.25 264.082 361.382 264.399 361.616 264.634C361.851 264.868 362.168 265 362.5 265H367.5V267.5H365V268.75H375V267.5H372.5V265H377.5C377.832 265 378.149 264.868 378.384 264.634C378.618 264.399 378.75 264.082 378.75 263.75V260H377.5ZM371.25 267.5H368.75V265H371.25V267.5Z" fill="white"/>
<path d="M373.125 259.375L370 256.275L370.994 255.294L373.125 257.406L377.756 252.812L378.75 253.8L373.125 259.375Z" fill="white"/>
<text fill="black" xml:space="preserve" style="white-space: pre" font-family="IBM Plex Sans" font-size="14" font-weight="600" letter-spacing="0.16px"><tspan x="281.847" y="306.25">IBM Cloud Activity Tracker</tspan></text>
<text fill="black" xml:space="preserve" style="white-space: pre" font-family="IBM Plex Sans" font-size="14" letter-spacing="0.16px"><tspan x="275.254" y="324.25">Hosted event search instance</tspan></text>
<rect width="148" height="92" transform="translate(296 344)" fill="white" style="mix-blend-mode:multiply"/>
<rect width="48" height="48" transform="translate(346 344)" fill="#8D8D8D"/>
<g clip-path="url(#clip5_794_39451)">
<path d="M376.139 364.328C375.866 362.899 375.104 361.611 373.983 360.684C372.863 359.757 371.454 359.25 370 359.25C368.546 359.25 367.137 359.757 366.017 360.684C364.896 361.611 364.134 362.899 363.861 364.328C362.708 364.534 361.674 365.164 360.963 366.094C360.252 367.025 359.915 368.188 360.018 369.355C360.122 370.521 360.659 371.607 361.523 372.397C362.387 373.188 363.516 373.626 364.687 373.625H365V372.375H364.687C363.796 372.376 362.94 372.03 362.299 371.411C361.658 370.792 361.283 369.948 361.252 369.058C361.222 368.167 361.538 367.3 362.135 366.638C362.732 365.977 363.563 365.573 364.452 365.513L364.975 365.477L365.031 364.956C365.165 363.732 365.746 362.6 366.663 361.777C367.58 360.955 368.768 360.5 370 360.5C371.232 360.5 372.42 360.955 373.337 361.777C374.254 362.6 374.836 363.732 374.969 364.956L375.025 365.477L375.548 365.513C376.437 365.573 377.268 365.977 377.865 366.639C378.462 367.3 378.778 368.168 378.748 369.058C378.717 369.949 378.342 370.792 377.701 371.411C377.06 372.03 376.204 372.376 375.312 372.375H375V373.625H375.312C376.484 373.626 377.613 373.188 378.477 372.397C379.341 371.607 379.878 370.521 379.982 369.355C380.085 368.188 379.748 367.025 379.037 366.094C378.326 365.164 377.292 364.534 376.139 364.328Z" fill="white"/>
<path d="M374.375 371.75V370.5H373.062C372.981 370.109 372.826 369.737 372.604 369.405L373.536 368.473L372.652 367.59L371.721 368.521C371.388 368.299 371.016 368.144 370.625 368.063V366.75H369.375V368.063C368.984 368.144 368.612 368.299 368.279 368.521L367.348 367.59L366.464 368.473L367.396 369.405C367.174 369.737 367.019 370.109 366.938 370.5H365.625V371.75H366.938C367.019 372.141 367.174 372.513 367.396 372.846L366.464 373.777L367.348 374.661L368.279 373.729C368.612 373.951 368.984 374.106 369.375 374.187V375.5H370.625V374.187C371.016 374.106 371.388 373.951 371.721 373.73L372.652 374.661L373.536 373.777L372.604 372.846C372.826 372.513 372.981 372.141 373.062 371.75H374.375ZM370 373C369.629 373 369.267 372.89 368.958 372.684C368.65 372.478 368.41 372.185 368.268 371.843C368.126 371.5 368.089 371.123 368.161 370.759C368.233 370.396 368.412 370.062 368.674 369.799C368.936 369.537 369.27 369.359 369.634 369.286C369.998 369.214 370.375 369.251 370.718 369.393C371.06 369.535 371.353 369.775 371.559 370.083C371.765 370.392 371.875 370.754 371.875 371.125C371.874 371.622 371.677 372.099 371.325 372.45C370.974 372.802 370.497 373 370 373Z" fill="white"/>
</g>
<text fill="black" xml:space="preserve" style="white-space: pre" font-family="IBM Plex Sans" font-size="14" font-weight="600" letter-spacing="0.16px"><tspan x="306.453" y="414.25">IBM Cloud services</tspan></text>
<rect width="48" height="48" transform="translate(346 452)" fill="white" style="mix-blend-mode:multiply"/>
<rect width="48" height="48" transform="translate(346 452)" fill="#8D8D8D"/>
<rect width="20" height="20" transform="translate(360 466)" fill="white" style="mix-blend-mode:multiply"/>
<path d="M376.143 474.197C375.867 472.77 375.103 471.484 373.982 470.558C372.861 469.633 371.453 469.126 370 469.125V470.375C371.163 470.376 372.289 470.782 373.186 471.522C374.082 472.263 374.694 473.292 374.916 474.433L375.078 475.274L375.92 475.427C376.765 475.579 377.523 476.042 378.043 476.724C378.564 477.406 378.811 478.259 378.736 479.114C378.66 479.969 378.267 480.765 377.635 481.345C377.002 481.925 376.176 482.248 375.317 482.25H370V483.5H375.317C376.488 483.498 377.615 483.058 378.478 482.268C379.341 481.477 379.877 480.392 379.981 479.226C380.084 478.06 379.748 476.897 379.038 475.967C378.327 475.036 377.295 474.405 376.143 474.197Z" fill="white"/>
<path d="M368.75 481H365V482.25H368.75V481Z" fill="white"/>
<path d="M363.75 481H362.5V482.25H363.75V481Z" fill="white"/>
<path d="M368.75 478.5H363.75V479.75H368.75V478.5Z" fill="white"/>
<path d="M362.5 478.5H361.25V479.75H362.5V478.5Z" fill="white"/>
<path d="M368.75 476H365V477.25H368.75V476Z" fill="white"/>
<path d="M363.75 476H362.5V477.25H363.75V476Z" fill="white"/>
<path d="M368.75 473.5H366.25V474.75H368.75V473.5Z" fill="white"/>
<path d="M365 473.5H363.75V474.75H365V473.5Z" fill="white"/>
<path d="M368.75 471H367.5V472.25H368.75V471Z" fill="white"/>
<text fill="black" xml:space="preserve" style="white-space: pre" font-family="IBM Plex Sans" font-size="14" font-weight="600" letter-spacing="0.16px"><tspan x="311.961" y="522.25">Platform services</tspan></text>
<rect width="174" height="92" transform="translate(283 542)" fill="white" style="mix-blend-mode:multiply"/>
<rect width="48" height="48" transform="translate(346 542)" fill="#8D8D8D"/>
<rect width="20" height="20" transform="translate(360 556)" fill="white" style="mix-blend-mode:multiply"/>
<path d="M377.5 568.5H376.25V569.75H377.5V573.5H362.5V569.75H368.75V568.5H362.5C362.169 568.5 361.851 568.632 361.617 568.867C361.382 569.101 361.25 569.419 361.25 569.75V573.5C361.25 573.831 361.382 574.149 361.617 574.383C361.851 574.618 362.169 574.75 362.5 574.75H377.5C377.831 574.75 378.149 574.618 378.383 574.383C378.618 574.149 378.75 573.831 378.75 573.5V569.75C378.75 569.419 378.618 569.101 378.383 568.867C378.149 568.632 377.831 568.5 377.5 568.5Z" fill="white"/>
<path d="M364.375 572.25C364.72 572.25 365 571.97 365 571.625C365 571.28 364.72 571 364.375 571C364.03 571 363.75 571.28 363.75 571.625C363.75 571.97 364.03 572.25 364.375 572.25Z" fill="white"/>
<path d="M378.75 561H373.75V564.75H370V569.75H375V566H378.75V561ZM373.75 568.5H371.25V566H373.75V568.5ZM377.5 564.75H375V562.25H377.5V564.75Z" fill="white"/>
<path d="M371.25 562.25H366.25V557.25H371.25V562.25ZM367.5 561H370V558.5H367.5V561Z" fill="white"/>
<text fill="black" xml:space="preserve" style="white-space: pre" font-family="IBM Plex Sans" font-size="14" font-weight="600" letter-spacing="0.16px"><tspan x="284.803" y="612.25">IBM Cloud Object Storage</tspan></text>
<text fill="black" xml:space="preserve" style="white-space: pre" font-family="IBM Plex Sans" font-size="14" letter-spacing="0.16px"><tspan x="347.657" y="630.25">Bucket</tspan></text>
<rect width="314" height="12" transform="translate(394 255)" fill="white" style="mix-blend-mode:multiply"/>
<path d="M394 261H700" stroke="black"/>
<path d="M700 257L708 261L700 265L700 257Z" fill="black"/>
<rect width="128" height="12" transform="translate(756 255)" fill="white" style="mix-blend-mode:multiply"/>
<path d="M756 261H876" stroke="black"/>
<path d="M876 257L884 261L876 265L876 257Z" fill="black"/>
<rect width="128" height="12" transform="translate(756 378)" fill="white" style="mix-blend-mode:multiply"/>
<path d="M756 384H876" stroke="black"/>
<path d="M876 380L884 384L876 388L876 380Z" fill="black"/>
<path d="M908 314L908 348" stroke="black"/>
<path d="M904 348L908 356L912 348H904Z" fill="black"/>
<rect width="254" height="258" transform="matrix(-1 0 0 -1 656 566)" fill="white" style="mix-blend-mode:multiply"/>
<path d="M402 566H648C652.418 566 656 562.418 656 558V308" stroke="black"/>
<rect width="8" height="8" transform="matrix(-1 0 0 1 402 562)" fill="white" style="mix-blend-mode:multiply"/>
<path d="M402 562L394 566L402 570V562Z" fill="black"/>
<rect width="154" height="162" transform="matrix(-1 0 0 -1 548 476)" fill="white" style="mix-blend-mode:multiply"/>
<path d="M394 476H540C544.418 476 548 472.418 548 468V314" stroke="black"/>
<rect width="64" height="62" transform="matrix(-1 0 0 -1 820 376)" fill="white" style="mix-blend-mode:multiply"/>
<path d="M756 376H812C816.418 376 820 372.418 820 368V314" stroke="black"/>
<rect width="16" height="75" transform="translate(820 261)" fill="white" style="mix-blend-mode:multiply"/>
<path d="M836 261H828C823.582 261 820 264.582 820 269V336" stroke="black"/>
<rect width="146" height="54" transform="matrix(-1 0 0 -1 540 368)" fill="white" style="mix-blend-mode:multiply"/>
<path d="M394 368H532C536.418 368 540 364.418 540 360V314" stroke="black"/>
<rect width="16" height="66" transform="translate(548 261)" fill="white" style="mix-blend-mode:multiply"/>
<path d="M564 261H556C551.582 261 548 264.582 548 269V327" stroke="black"/>
<rect width="52" height="73" transform="translate(656 269)" fill="white" style="mix-blend-mode:multiply"/>
<path d="M708 269H664C659.582 269 656 272.582 656 277V342" stroke="black"/>
<rect width="8" height="66" transform="translate(540 261)" fill="white" style="mix-blend-mode:multiply"/>
<path d="M548 261V261C543.582 261 540 264.582 540 269V327" stroke="black"/>
<rect width="506" height="260" transform="matrix(-1 0 0 -1 908 690)" fill="white" style="mix-blend-mode:multiply"/>
<path d="M402 690H900C904.418 690 908 686.418 908 682V430" stroke="black"/>
<rect width="8" height="8" transform="matrix(-1 0 0 1 402 686)" fill="white" style="mix-blend-mode:multiply"/>
<path d="M402 686L394 690L402 694V686Z" fill="black"/>
<rect width="56" height="92" transform="translate(342 666)" fill="white" style="mix-blend-mode:multiply"/>
<rect width="48" height="48" transform="translate(346 666)" fill="#8D8D8D"/>
<rect width="20" height="20" transform="translate(360 680)" fill="white" style="mix-blend-mode:multiply"/>
<path d="M370 681.25C368.269 681.25 366.578 681.763 365.139 682.725C363.7 683.686 362.578 685.053 361.916 686.652C361.254 688.25 361.081 690.01 361.418 691.707C361.756 693.404 362.589 694.963 363.813 696.187C365.037 697.411 366.596 698.244 368.293 698.582C369.99 698.919 371.75 698.746 373.348 698.084C374.947 697.422 376.314 696.3 377.275 694.861C378.237 693.422 378.75 691.731 378.75 690C378.75 687.679 377.828 685.454 376.187 683.813C374.546 682.172 372.321 681.25 370 681.25V681.25ZM377.5 689.375H373.75C373.677 687.073 373.081 684.818 372.006 682.781C373.487 683.186 374.807 684.036 375.79 685.215C376.772 686.394 377.369 687.846 377.5 689.375V689.375ZM370 697.5C369.861 697.509 369.721 697.509 369.581 697.5C368.286 695.435 367.568 693.061 367.5 690.625H372.5C372.438 693.06 371.726 695.433 370.438 697.5C370.292 697.51 370.146 697.51 370 697.5ZM367.5 689.375C367.562 686.94 368.274 684.567 369.563 682.5C369.841 682.469 370.122 682.469 370.4 682.5C371.701 684.563 372.427 686.937 372.5 689.375H367.5ZM367.975 682.781C366.907 684.82 366.317 687.075 366.25 689.375H362.5C362.631 687.846 363.228 686.394 364.21 685.215C365.193 684.036 366.513 683.186 367.994 682.781H367.975ZM362.531 690.625H366.281C366.346 692.925 366.934 695.18 368 697.219C366.524 696.809 365.209 695.958 364.232 694.779C363.254 693.601 362.661 692.151 362.531 690.625V690.625ZM372.006 697.219C373.081 695.182 373.677 692.927 373.75 690.625H377.5C377.369 692.154 376.772 693.606 375.79 694.785C374.807 695.964 373.487 696.814 372.006 697.219Z" fill="white"/>
<text fill="black" xml:space="preserve" style="white-space: pre" font-family="IBM Plex Sans" font-size="14" font-weight="600" letter-spacing="0.16px"><tspan x="342.422" y="736.25">Browser</tspan></text>
<text fill="black" xml:space="preserve" style="white-space: pre" font-family="IBM Plex Sans" font-size="14" letter-spacing="0.16px"><tspan x="346.365" y="754.25">Web UI</tspan></text>
<rect width="72" height="74" transform="translate(872 356)" fill="white" style="mix-blend-mode:multiply"/>
<rect width="48" height="48" transform="translate(884 356)" fill="#8D8D8D"/>
<rect width="20" height="20" transform="translate(898 370)" fill="white" style="mix-blend-mode:multiply"/>
<path d="M908 371.25C906.269 371.25 904.578 371.763 903.139 372.725C901.7 373.686 900.578 375.053 899.916 376.652C899.254 378.25 899.081 380.01 899.418 381.707C899.756 383.404 900.589 384.963 901.813 386.187C903.037 387.411 904.596 388.244 906.293 388.582C907.99 388.919 909.75 388.746 911.348 388.084C912.947 387.422 914.314 386.3 915.275 384.861C916.237 383.422 916.75 381.731 916.75 380C916.75 377.679 915.828 375.454 914.187 373.813C912.546 372.172 910.321 371.25 908 371.25V371.25ZM915.5 379.375H911.75C911.677 377.073 911.081 374.818 910.006 372.781C911.487 373.186 912.807 374.036 913.79 375.215C914.772 376.394 915.369 377.846 915.5 379.375V379.375ZM908 387.5C907.861 387.509 907.721 387.509 907.581 387.5C906.286 385.435 905.568 383.061 905.5 380.625H910.5C910.438 383.06 909.726 385.433 908.438 387.5C908.292 387.51 908.146 387.51 908 387.5ZM905.5 379.375C905.562 376.94 906.274 374.567 907.563 372.5C907.841 372.469 908.122 372.469 908.4 372.5C909.701 374.563 910.427 376.937 910.5 379.375H905.5ZM905.975 372.781C904.907 374.82 904.317 377.075 904.25 379.375H900.5C900.631 377.846 901.228 376.394 902.21 375.215C903.193 374.036 904.513 373.186 905.994 372.781H905.975ZM900.531 380.625H904.281C904.346 382.925 904.934 385.18 906 387.219C904.524 386.809 903.209 385.958 902.232 384.779C901.254 383.601 900.661 382.151 900.531 380.625V380.625ZM910.006 387.219C911.081 385.182 911.677 382.927 911.75 380.625H915.5C915.369 382.154 914.772 383.606 913.79 384.785C912.807 385.964 911.487 386.814 910.006 387.219Z" fill="white"/>
<text fill="black" xml:space="preserve" style="white-space: pre" font-family="IBM Plex Sans" font-size="14" font-weight="600" letter-spacing="0.16px"><tspan x="883.565" y="426.25">Web UI</tspan></text>
<rect width="72" height="74" transform="translate(696 236)" fill="white" style="mix-blend-mode:multiply"/>
<rect width="48" height="48" transform="translate(708 236)" fill="#24A148"/>
<rect width="20" height="20" transform="translate(722 250)" fill="white" style="mix-blend-mode:multiply"/>
<path d="M732 261.25C732.69 261.25 733.25 260.69 733.25 260C733.25 259.31 732.69 258.75 732 258.75C731.31 258.75 730.75 259.31 730.75 260C730.75 260.69 731.31 261.25 732 261.25Z" fill="white"/>
<path d="M740.75 260.625V259.375H736.894L738.506 257.756L737.625 256.875L734.5 260L737.625 263.125L738.506 262.244L736.894 260.625H740.75Z" fill="white"/>
<path d="M731.375 264.894V268.75H732.625V264.894L734.244 266.506L735.125 265.625L732 262.5L728.875 265.625L729.756 266.506L731.375 264.894Z" fill="white"/>
<path d="M726.375 256.875L725.494 257.756L727.106 259.375H723.25V260.625H727.106L725.494 262.244L726.375 263.125L729.5 260L726.375 256.875Z" fill="white"/>
<path d="M732.625 255.106V251.25H731.375V255.106L729.756 253.494L728.875 254.375L732 257.5L735.125 254.375L734.244 253.494L732.625 255.106Z" fill="white"/>
<text fill="black" xml:space="preserve" style="white-space: pre" font-family="IBM Plex Sans" font-size="14" font-weight="600" letter-spacing="0.16px"><tspan x="702.082" y="306.25">Collector</tspan></text>
<rect width="72" height="74" transform="translate(872 236)" fill="white" style="mix-blend-mode:multiply"/>
<rect width="48" height="48" transform="translate(884 236)" fill="#24A148"/>
<rect width="20" height="20" transform="translate(898 250)" fill="white" style="mix-blend-mode:multiply"/>
<path d="M903.625 254.375C903.97 254.375 904.25 254.095 904.25 253.75C904.25 253.405 903.97 253.125 903.625 253.125C903.28 253.125 903 253.405 903 253.75C903 254.095 903.28 254.375 903.625 254.375Z" fill="white"/>
<path d="M914.25 256.25H901.75C901.419 256.25 901.101 256.118 900.867 255.883C900.632 255.649 900.5 255.331 900.5 255V252.5C900.5 252.169 900.632 251.851 900.867 251.617C901.101 251.382 901.419 251.25 901.75 251.25H914.25C914.581 251.25 914.899 251.382 915.133 251.617C915.368 251.851 915.5 252.169 915.5 252.5V255C915.5 255.331 915.368 255.649 915.133 255.883C914.899 256.118 914.581 256.25 914.25 256.25ZM901.75 252.5V255H914.25V252.5H901.75Z" fill="white"/>
<path d="M903.625 260.625C903.97 260.625 904.25 260.345 904.25 260C904.25 259.655 903.97 259.375 903.625 259.375C903.28 259.375 903 259.655 903 260C903 260.345 903.28 260.625 903.625 260.625Z" fill="white"/>
<path d="M914.25 262.5H901.75C901.419 262.5 901.101 262.368 900.867 262.133C900.632 261.899 900.5 261.581 900.5 261.25V258.75C900.5 258.419 900.632 258.101 900.867 257.867C901.101 257.632 901.419 257.5 901.75 257.5H914.25C914.581 257.5 914.899 257.632 915.133 257.867C915.368 258.101 915.5 258.419 915.5 258.75V261.25C915.5 261.581 915.368 261.899 915.133 262.133C914.899 262.368 914.581 262.5 914.25 262.5ZM901.75 258.75V261.25H914.25V258.75H901.75Z" fill="white"/>
<path d="M903.625 266.875C903.97 266.875 904.25 266.595 904.25 266.25C904.25 265.905 903.97 265.625 903.625 265.625C903.28 265.625 903 265.905 903 266.25C903 266.595 903.28 266.875 903.625 266.875Z" fill="white"/>
<path d="M914.25 268.75H901.75C901.419 268.75 901.101 268.618 900.867 268.383C900.632 268.149 900.5 267.831 900.5 267.5V265C900.5 264.669 900.632 264.351 900.867 264.117C901.101 263.882 901.419 263.75 901.75 263.75H914.25C914.581 263.75 914.899 263.882 915.133 264.117C915.368 264.351 915.5 264.669 915.5 265V267.5C915.5 267.831 915.368 268.149 915.133 268.383C914.899 268.618 914.581 268.75 914.25 268.75ZM901.75 265V267.5H914.25V265H901.75Z" fill="white"/>
<text fill="black" xml:space="preserve" style="white-space: pre" font-family="IBM Plex Sans" font-size="14" font-weight="600" letter-spacing="0.16px"><tspan x="873.798" y="306.25">Data store</tspan></text>
<rect width="72" height="74" transform="translate(696 356)" fill="white" style="mix-blend-mode:multiply"/>
<rect width="48" height="48" transform="translate(708 356)" fill="#24A148"/>
<rect width="20" height="20" transform="translate(722 370)" fill="white" style="mix-blend-mode:multiply"/>
<path d="M738.25 383.75C737.809 383.752 737.376 383.875 737 384.106L735.069 382.169C735.518 381.535 735.759 380.777 735.759 380C735.759 379.223 735.518 378.465 735.069 377.831L737 375.894C737.376 376.125 737.809 376.248 738.25 376.25C738.744 376.25 739.228 376.103 739.639 375.829C740.05 375.554 740.37 375.164 740.56 374.707C740.749 374.25 740.798 373.747 740.702 373.262C740.606 372.777 740.367 372.332 740.018 371.982C739.668 371.633 739.223 371.395 738.738 371.298C738.253 371.202 737.75 371.251 737.293 371.44C736.836 371.63 736.446 371.95 736.171 372.361C735.897 372.772 735.75 373.256 735.75 373.75C735.752 374.191 735.875 374.624 736.106 375L734.169 376.931C733.535 376.482 732.777 376.241 732 376.241C731.223 376.241 730.465 376.482 729.831 376.931L727.894 375C728.125 374.624 728.248 374.191 728.25 373.75C728.25 373.256 728.103 372.772 727.829 372.361C727.554 371.95 727.164 371.63 726.707 371.44C726.25 371.251 725.747 371.202 725.262 371.298C724.777 371.395 724.332 371.633 723.982 371.982C723.633 372.332 723.395 372.777 723.298 373.262C723.202 373.747 723.251 374.25 723.44 374.707C723.63 375.164 723.95 375.554 724.361 375.829C724.772 376.103 725.256 376.25 725.75 376.25C726.191 376.248 726.624 376.125 727 375.894L728.931 377.831C728.482 378.465 728.241 379.223 728.241 380C728.241 380.777 728.482 381.535 728.931 382.169L727 384.106C726.624 383.875 726.191 383.752 725.75 383.75C725.256 383.75 724.772 383.897 724.361 384.171C723.95 384.446 723.63 384.836 723.44 385.293C723.251 385.75 723.202 386.253 723.298 386.738C723.395 387.223 723.633 387.668 723.982 388.018C724.332 388.367 724.777 388.606 725.262 388.702C725.747 388.798 726.25 388.749 726.707 388.56C727.164 388.37 727.554 388.05 727.829 387.639C728.103 387.228 728.25 386.744 728.25 386.25C728.248 385.809 728.125 385.376 727.894 385L729.831 383.069C730.465 383.518 731.223 383.759 732 383.759C732.777 383.759 733.535 383.518 734.169 383.069L736.106 385C735.875 385.376 735.752 385.809 735.75 386.25C735.75 386.744 735.897 387.228 736.171 387.639C736.446 388.05 736.836 388.37 737.293 388.56C737.75 388.749 738.253 388.798 738.738 388.702C739.223 388.606 739.668 388.367 740.018 388.018C740.367 387.668 740.606 387.223 740.702 386.738C740.798 386.253 740.749 385.75 740.56 385.293C740.37 384.836 740.05 384.446 739.639 384.171C739.228 383.897 738.744 383.75 738.25 383.75ZM738.25 372.5C738.497 372.5 738.739 372.573 738.944 372.711C739.15 372.848 739.31 373.043 739.405 373.272C739.499 373.5 739.524 373.751 739.476 373.994C739.428 374.236 739.309 374.459 739.134 374.634C738.959 374.809 738.736 374.928 738.494 374.976C738.251 375.024 738 374.999 737.772 374.905C737.543 374.81 737.348 374.65 737.211 374.444C737.073 374.239 737 373.997 737 373.75C737 373.418 737.132 373.101 737.366 372.866C737.601 372.632 737.918 372.5 738.25 372.5V372.5ZM724.5 373.75C724.5 373.503 724.573 373.261 724.711 373.056C724.848 372.85 725.043 372.69 725.272 372.595C725.5 372.501 725.751 372.476 725.994 372.524C726.236 372.572 726.459 372.691 726.634 372.866C726.809 373.041 726.928 373.264 726.976 373.506C727.024 373.749 726.999 374 726.905 374.228C726.81 374.457 726.65 374.652 726.444 374.789C726.239 374.927 725.997 375 725.75 375C725.418 375 725.101 374.868 724.866 374.634C724.632 374.399 724.5 374.082 724.5 373.75V373.75ZM725.75 387.5C725.503 387.5 725.261 387.427 725.056 387.289C724.85 387.152 724.69 386.957 724.595 386.728C724.501 386.5 724.476 386.249 724.524 386.006C724.572 385.764 724.691 385.541 724.866 385.366C725.041 385.191 725.264 385.072 725.506 385.024C725.749 384.976 726 385.001 726.228 385.095C726.457 385.19 726.652 385.35 726.789 385.556C726.927 385.761 727 386.003 727 386.25C727 386.582 726.868 386.899 726.634 387.134C726.399 387.368 726.082 387.5 725.75 387.5ZM732 382.5C731.506 382.5 731.022 382.353 730.611 382.079C730.2 381.804 729.88 381.414 729.69 380.957C729.501 380.5 729.452 379.997 729.548 379.512C729.645 379.027 729.883 378.582 730.232 378.232C730.582 377.883 731.027 377.645 731.512 377.548C731.997 377.452 732.5 377.501 732.957 377.69C733.414 377.88 733.804 378.2 734.079 378.611C734.353 379.022 734.5 379.506 734.5 380C734.5 380.663 734.237 381.299 733.768 381.768C733.299 382.237 732.663 382.5 732 382.5ZM738.25 387.5C738.003 387.5 737.761 387.427 737.556 387.289C737.35 387.152 737.19 386.957 737.095 386.728C737.001 386.5 736.976 386.249 737.024 386.006C737.072 385.764 737.191 385.541 737.366 385.366C737.541 385.191 737.764 385.072 738.006 385.024C738.249 384.976 738.5 385.001 738.728 385.095C738.957 385.19 739.152 385.35 739.289 385.556C739.427 385.761 739.5 386.003 739.5 386.25C739.5 386.582 739.368 386.899 739.134 387.134C738.899 387.368 738.582 387.5 738.25 387.5Z" fill="white"/>
<text fill="black" xml:space="preserve" style="white-space: pre" font-family="IBM Plex Sans" font-size="14" font-weight="600" letter-spacing="0.16px"><tspan x="697.011" y="426.25">API server</tspan></text>
<rect x="80.5" y="172.5" width="143" height="393" fill="white"/>
<rect x="81" y="173" width="142" height="392" fill="#F4F4F4"/>
<g clip-path="url(#clip6_794_39451)">
<text fill="black" xml:space="preserve" style="white-space: pre" font-family="IBM Plex Sans" font-size="14" font-weight="600" letter-spacing="0.16px"><tspan x="132" y="201.25">IAM</tspan></text>
<path d="M110.062 194.125C107.125 194.125 104.75 196.5 104.75 199.438C104.75 202.375 107.125 204.75 110.062 204.75C113 204.75 115.375 202.375 115.375 199.438C115.375 196.5 113 194.125 110.062 194.125ZM114.125 199.125H112.25C112.25 197.875 112.063 196.625 111.688 195.688C113 196.312 114 197.562 114.125 199.125ZM110.062 203.5C109.813 203.375 109.25 202.375 109.125 200.375H110.937C110.812 202.375 110.312 203.375 110.062 203.5ZM109.125 199.125C109.187 196.75 109.812 195.5 110 195.375C110.25 195.5 110.875 196.75 110.937 199.125H109.125ZM108.437 195.688C108.062 196.625 107.937 197.875 107.875 199.125H106C106.125 197.562 107.125 196.312 108.437 195.688ZM106.125 200.375H107.875C107.937 201.375 108.125 202.375 108.437 203.188C107.312 202.687 106.438 201.625 106.125 200.375ZM111.688 203.188C112 202.375 112.187 201.437 112.25 200.375H114.062C113.687 201.625 112.813 202.687 111.688 203.188Z" fill="black"/>
<path d="M112.125 192.25C111.562 189.375 109 187.25 106 187.25C103 187.25 100.437 189.375 99.875 192.313C97.6875 192.75 96 194.625 96 196.938C96 199.5 98.125 201.625 100.688 201.625H102.875V200.375H100.688C98.8125 200.375 97.25 198.812 97.25 196.938C97.25 195.125 98.625 193.625 100.437 193.5H101V192.938C101.312 190.438 103.437 188.5 106 188.5C108.313 188.5 110.25 190.125 110.813 192.25H112.125Z" fill="black"/>
<line x1="82" y1="172" x2="82" y2="220" stroke="#8D8D8D" stroke-width="4"/>
</g>
<rect x="80.5" y="172.5" width="143" height="393" stroke="#8D8D8D"/>
<rect width="143.284" height="92" transform="translate(80 236)" fill="white" style="mix-blend-mode:multiply"/>
<rect width="56" height="56" transform="translate(128 228)" fill="white" style="mix-blend-mode:multiply"/>
<path d="M184 228H128V284H184V228Z" fill="white" style="mix-blend-mode:multiply"/>
<path d="M132 232.5H179.5V280" stroke="#8D8D8D"/>
<path d="M136 228.5H183.5V276" stroke="#8D8D8D"/>
<rect width="48" height="48" transform="translate(127.642 236)" fill="#8D8D8D"/>
<g clip-path="url(#clip7_794_39451)">
<path d="M161.017 268.75H159.767V266.875C159.767 266.378 159.569 265.901 159.217 265.549C158.866 265.198 158.389 265 157.892 265H155.392C154.894 265 154.417 265.198 154.066 265.549C153.714 265.901 153.517 266.378 153.517 266.875V268.75H152.267V266.875C152.267 266.046 152.596 265.251 153.182 264.665C153.768 264.079 154.563 263.75 155.392 263.75H157.892C158.72 263.75 159.515 264.079 160.101 264.665C160.687 265.251 161.017 266.046 161.017 266.875V268.75Z" fill="white"/>
<path d="M156.642 257.5C157.012 257.5 157.375 257.61 157.683 257.816C157.992 258.022 158.232 258.315 158.374 258.657C158.516 259 158.553 259.377 158.481 259.741C158.408 260.105 158.23 260.439 157.967 260.701C157.705 260.963 157.371 261.142 157.007 261.214C156.644 261.286 156.267 261.249 155.924 261.107C155.581 260.965 155.289 260.725 155.083 260.417C154.877 260.108 154.767 259.746 154.767 259.375C154.767 258.878 154.964 258.401 155.316 258.049C155.667 257.698 156.144 257.5 156.642 257.5ZM156.642 256.25C156.024 256.25 155.419 256.433 154.905 256.777C154.392 257.12 153.991 257.608 153.754 258.179C153.518 258.75 153.456 259.378 153.577 259.985C153.697 260.591 153.995 261.148 154.432 261.585C154.869 262.022 155.426 262.319 156.032 262.44C156.638 262.561 157.266 262.499 157.837 262.262C158.409 262.026 158.897 261.625 159.24 261.111C159.583 260.597 159.767 259.993 159.767 259.375C159.767 258.546 159.437 257.751 158.851 257.165C158.265 256.579 157.47 256.25 156.642 256.25Z" fill="white"/>
<path d="M151.017 263.75H149.767V261.875C149.767 261.378 149.569 260.901 149.217 260.549C148.866 260.198 148.389 260 147.892 260H145.392C144.894 260 144.417 260.198 144.066 260.549C143.714 260.901 143.517 261.378 143.517 261.875V263.75H142.267V261.875C142.267 261.046 142.596 260.251 143.182 259.665C143.768 259.079 144.563 258.75 145.392 258.75H147.892C148.72 258.75 149.515 259.079 150.101 259.665C150.687 260.251 151.017 261.046 151.017 261.875V263.75Z" fill="white"/>
<path d="M146.642 252.5C147.012 252.5 147.375 252.61 147.683 252.816C147.992 253.022 148.232 253.315 148.374 253.657C148.516 254 148.553 254.377 148.481 254.741C148.408 255.105 148.23 255.439 147.967 255.701C147.705 255.963 147.371 256.142 147.007 256.214C146.644 256.286 146.267 256.249 145.924 256.107C145.581 255.965 145.289 255.725 145.083 255.417C144.877 255.108 144.767 254.746 144.767 254.375C144.767 253.878 144.964 253.401 145.316 253.049C145.667 252.698 146.144 252.5 146.642 252.5ZM146.642 251.25C146.024 251.25 145.419 251.433 144.905 251.777C144.392 252.12 143.991 252.608 143.754 253.179C143.518 253.75 143.456 254.378 143.577 254.985C143.697 255.591 143.995 256.148 144.432 256.585C144.869 257.022 145.426 257.319 146.032 257.44C146.638 257.561 147.266 257.499 147.837 257.262C148.409 257.026 148.897 256.625 149.24 256.111C149.583 255.597 149.767 254.993 149.767 254.375C149.767 253.546 149.437 252.751 148.851 252.165C148.265 251.579 147.47 251.25 146.642 251.25Z" fill="white"/>
</g>
<text fill="black" xml:space="preserve" style="white-space: pre" font-family="IBM Plex Sans" font-size="14" font-weight="600" letter-spacing="0.16px"><tspan x="107.588" y="306.25">Access group </tspan></text>
<rect width="143.284" height="92" transform="translate(80 344)" fill="white" style="mix-blend-mode:multiply"/>
<rect width="56" height="56" transform="translate(128 336)" fill="white" style="mix-blend-mode:multiply"/>
<path d="M184 336H128V392H184V336Z" fill="white" style="mix-blend-mode:multiply"/>
<path d="M132 340.5H179.5V388" stroke="#8D8D8D"/>
<path d="M136 336.5H183.5V384" stroke="#8D8D8D"/>
<rect width="48" height="48" transform="translate(127.642 344)" fill="#8D8D8D"/>
<rect width="20" height="20" transform="translate(141.642 358)" fill="white" style="mix-blend-mode:multiply"/>
<path d="M151.642 360.5C152.26 360.5 152.864 360.683 153.378 361.027C153.892 361.37 154.292 361.858 154.529 362.429C154.765 363 154.827 363.628 154.707 364.235C154.586 364.841 154.288 365.398 153.851 365.835C153.414 366.272 152.857 366.569 152.251 366.69C151.645 366.811 151.017 366.749 150.446 366.512C149.875 366.276 149.387 365.875 149.043 365.361C148.7 364.847 148.517 364.243 148.517 363.625C148.517 362.796 148.846 362.001 149.432 361.415C150.018 360.829 150.813 360.5 151.642 360.5ZM151.642 359.25C150.776 359.25 149.93 359.507 149.211 359.987C148.492 360.468 147.931 361.151 147.6 361.951C147.268 362.75 147.182 363.63 147.351 364.479C147.519 365.327 147.936 366.107 148.548 366.719C149.16 367.33 149.939 367.747 150.788 367.916C151.637 368.085 152.516 367.998 153.316 367.667C154.115 367.336 154.799 366.775 155.279 366.056C155.76 365.336 156.017 364.49 156.017 363.625C156.017 362.465 155.556 361.352 154.735 360.531C153.915 359.711 152.802 359.25 151.642 359.25Z" fill="white"/>
<path d="M157.892 376.75H156.642V373.625C156.642 373.215 156.561 372.808 156.404 372.429C156.247 372.05 156.016 371.705 155.726 371.415C155.436 371.125 155.092 370.895 154.712 370.738C154.333 370.581 153.927 370.5 153.517 370.5H149.767C148.938 370.5 148.143 370.829 147.557 371.415C146.971 372.001 146.642 372.796 146.642 373.625V376.75H145.392V373.625C145.392 372.465 145.853 371.352 146.673 370.531C147.493 369.711 148.606 369.25 149.767 369.25H153.517C154.677 369.25 155.79 369.711 156.61 370.531C157.431 371.352 157.892 372.465 157.892 373.625V376.75Z" fill="white"/>
<text fill="black" xml:space="preserve" style="white-space: pre" font-family="IBM Plex Sans" font-size="14" font-weight="600" letter-spacing="0.16px"><tspan x="132.851" y="414.25">Users</tspan></text>
<rect width="143.284" height="92" transform="translate(80 452)" fill="white" style="mix-blend-mode:multiply"/>
<rect width="56" height="56" transform="translate(128 444)" fill="white" style="mix-blend-mode:multiply"/>
<path d="M184 444H128V500H184V444Z" fill="white" style="mix-blend-mode:multiply"/>
<path d="M132 448.5H179.5V496" stroke="#8D8D8D"/>
<path d="M136 444.5H183.5V492" stroke="#8D8D8D"/>
<rect width="48" height="48" transform="translate(127.642 452)" fill="#8D8D8D"/>
<rect width="20" height="20" transform="translate(141.642 466)" fill="white" style="mix-blend-mode:multiply"/>
<path d="M157.267 472.25L158.262 474.125L160.392 474.384L158.829 475.792L159.142 477.875L157.267 476.703L155.392 477.875L155.704 475.792L154.142 474.384L156.329 474.125L157.267 472.25Z" fill="white"/>
<path d="M155.392 484.75H154.142V481.625C154.141 480.796 153.811 480.002 153.225 479.416C152.639 478.831 151.845 478.501 151.017 478.5H147.267C146.438 478.501 145.644 478.831 145.058 479.416C144.472 480.002 144.143 480.796 144.142 481.625V484.75H142.892V481.625C142.893 480.465 143.354 479.353 144.175 478.533C144.995 477.713 146.107 477.251 147.267 477.25H151.017C152.177 477.251 153.289 477.713 154.109 478.533C154.929 479.353 155.39 480.465 155.392 481.625V484.75Z" fill="white"/>
<path d="M149.142 468.5C149.76 468.5 150.364 468.683 150.878 469.027C151.392 469.37 151.792 469.858 152.029 470.429C152.265 471 152.327 471.628 152.207 472.235C152.086 472.841 151.788 473.398 151.351 473.835C150.914 474.272 150.357 474.569 149.751 474.69C149.145 474.811 148.517 474.749 147.946 474.512C147.375 474.276 146.887 473.875 146.543 473.361C146.2 472.847 146.017 472.243 146.017 471.625C146.017 470.796 146.346 470.001 146.932 469.415C147.518 468.829 148.313 468.5 149.142 468.5ZM149.142 467.25C148.276 467.25 147.43 467.507 146.711 467.987C145.992 468.468 145.431 469.151 145.1 469.951C144.768 470.75 144.682 471.63 144.851 472.479C145.019 473.327 145.436 474.107 146.048 474.719C146.66 475.33 147.439 475.747 148.288 475.916C149.137 476.085 150.016 475.998 150.816 475.667C151.615 475.336 152.299 474.775 152.779 474.056C153.26 473.336 153.517 472.49 153.517 471.625C153.517 470.465 153.056 469.352 152.235 468.531C151.415 467.711 150.302 467.25 149.142 467.25Z" fill="white"/>
<text fill="black" xml:space="preserve" style="white-space: pre" font-family="IBM Plex Sans" font-size="14" font-weight="600" letter-spacing="0.16px"><tspan x="99.4915" y="522.25">Trusted profiles</tspan></text>
<rect x="433.5" y="558.5" width="58" height="15" rx="7.5" fill="white"/>
<text fill="black" xml:space="preserve" style="white-space: pre" font-family="IBM Plex Sans" font-size="12" letter-spacing="0.32px"><tspan x="441" y="569.5">Archive</tspan></text>
<rect x="433.5" y="558.5" width="58" height="15" rx="7.5" stroke="black"/>
<rect x="48.5" y="777.5" width="15" height="15" rx="3.5" fill="white" style="mix-blend-mode:multiply"/>
<rect x="48.5" y="777.5" width="15" height="15" rx="3.5" stroke="#8D8D8D"/>
<text fill="#6F6F6F" xml:space="preserve" style="white-space: pre" font-family="IBM Plex Sans" font-size="14" letter-spacing="0.16px"><tspan x="72" y="790.25">Logical node</tspan></text>
<rect x="169.5" y="777.5" width="15" height="15" fill="#F4F4F4"/>
<rect x="169.5" y="777.5" width="15" height="15" stroke="#8D8D8D"/>
<text fill="#6F6F6F" xml:space="preserve" style="white-space: pre" font-family="IBM Plex Sans" font-size="14" letter-spacing="0.16px"><tspan x="193" y="790.25">Prescribed node</tspan></text>
<defs>
<clipPath id="clip0_794_39451">
<rect width="516" height="48" fill="white" transform="translate(48 44)"/>
</clipPath>
<clipPath id="clip1_794_39451">
<rect width="420" height="48" fill="white" transform="translate(612 44)"/>
</clipPath>
<clipPath id="clip2_794_39451">
<rect width="952" height="48" fill="white" transform="translate(64 108)"/>
</clipPath>
<clipPath id="clip3_794_39451">
<rect width="20" height="20" fill="white" transform="translate(80 122)"/>
</clipPath>
<clipPath id="clip4_794_39451">
<rect width="360" height="48" fill="white" transform="translate(640 172)"/>
</clipPath>
<clipPath id="clip5_794_39451">
<rect width="20" height="20" fill="white" transform="translate(360 358)"/>
</clipPath>
<clipPath id="clip6_794_39451">
<rect width="144" height="48" fill="white" transform="translate(80 172)"/>
</clipPath>
<clipPath id="clip7_794_39451">
<rect width="20" height="20" fill="white" transform="translate(141.642 250)"/>
</clipPath>
</defs>
</svg>
