<svg width="1080" height="540" viewBox="0 0 1080 540" fill="none" xmlns="http://www.w3.org/2000/svg">
<rect width="1080" height="540" fill="#F4F4F4"/>
<rect width="1080" height="540" fill="#F4F4F4"/>
<rect x="48.5" y="146.5" width="983" height="247" fill="white"/>
<g clip-path="url(#clip0_712_44753)">
<text fill="black" xml:space="preserve" style="white-space: pre" font-family="IBM Plex Sans" font-size="14" font-weight="600" letter-spacing="0.16px"><tspan x="100" y="175.25">IBM Cloud</tspan></text>
<g clip-path="url(#clip1_712_44753)">
<rect width="20" height="20" transform="translate(64 160)" fill="white" style="mix-blend-mode:multiply"/>
<path d="M79.3628 168.532C78.7417 167.368 77.759 166.438 76.5628 165.881C75.3667 165.324 74.022 165.172 72.7315 165.446C71.441 165.72 70.2747 166.407 69.4084 167.402C68.5421 168.397 68.0228 169.647 67.9288 170.963C66.8556 171.078 65.8675 171.6 65.1677 172.422C64.468 173.244 64.1099 174.303 64.167 175.381C64.2242 176.459 64.6923 177.473 65.4751 178.217C66.2578 178.96 67.2957 179.375 68.375 179.376H78.375C79.7396 179.377 81.0551 178.867 82.0631 177.948C83.0711 177.028 83.6986 175.764 83.8224 174.405C83.9462 173.046 83.5573 171.69 82.7321 170.604C81.9069 169.517 80.7051 168.778 79.3628 168.532ZM78.375 178.438H68.375C67.5435 178.44 66.7424 178.126 66.1344 177.558C65.5264 176.991 65.1571 176.214 65.1015 175.384C65.0459 174.554 65.3081 173.735 65.8349 173.091C66.3617 172.448 67.1136 172.029 67.938 171.92C68.0041 172.747 68.2388 173.552 68.6277 174.285C68.6559 174.341 68.6949 174.391 68.7426 174.431C68.7902 174.472 68.8455 174.502 68.9052 174.521C68.9649 174.54 69.0277 174.547 69.09 174.541C69.1523 174.535 69.2128 174.517 69.2679 174.487C69.3231 174.458 69.3717 174.417 69.411 174.369C69.4503 174.32 69.4795 174.264 69.4968 174.204C69.5141 174.144 69.5192 174.081 69.5117 174.018C69.5043 173.956 69.4845 173.896 69.4535 173.842C68.834 172.684 68.6798 171.333 69.0225 170.065C69.3652 168.796 70.179 167.707 71.2977 167.019C72.4163 166.33 73.7556 166.095 75.0421 166.36C76.3285 166.625 77.4652 167.372 78.22 168.447C77.4709 168.467 76.7341 168.642 76.0552 168.959C75.3762 169.276 74.7697 169.729 74.2731 170.291C74.2309 170.336 74.1982 170.39 74.177 170.449C74.1558 170.508 74.1465 170.57 74.1498 170.632C74.153 170.695 74.1686 170.756 74.1958 170.812C74.2229 170.868 74.261 170.918 74.3078 170.96C74.3545 171.001 74.4091 171.032 74.4683 171.052C74.5274 171.072 74.5899 171.08 74.6522 171.076C74.7144 171.071 74.7751 171.054 74.8307 171.026C74.8863 170.997 74.9357 170.958 74.976 170.911C75.4767 170.343 76.1118 169.909 76.8232 169.65C77.5347 169.391 78.2997 169.314 79.0485 169.426C79.7973 169.539 80.506 169.837 81.1097 170.294C81.7135 170.751 82.1931 171.352 82.5047 172.042C82.8163 172.733 82.95 173.49 82.8936 174.245C82.8371 175 82.5924 175.729 82.1816 176.365C81.7709 177.001 81.2073 177.524 80.5423 177.886C79.8774 178.249 79.1322 178.438 78.375 178.438Z" fill="black"/>
<path d="M83.9365 166.41C83.9053 166.356 83.8639 166.309 83.8145 166.271C83.7651 166.233 83.7087 166.205 83.6485 166.189C83.5884 166.173 83.5256 166.169 83.4639 166.177C83.4022 166.185 83.3426 166.206 83.2887 166.237L81.4012 167.327C81.3458 167.357 81.297 167.398 81.2576 167.447C81.2183 167.497 81.1893 167.554 81.1722 167.615C81.1551 167.675 81.1504 167.739 81.1583 167.802C81.1661 167.864 81.1865 167.925 81.218 167.98C81.2496 168.034 81.2918 168.082 81.3421 168.12C81.3925 168.159 81.4499 168.186 81.5111 168.202C81.5723 168.218 81.636 168.221 81.6985 168.212C81.761 168.202 81.821 168.181 81.875 168.148L83.7625 167.058C83.8715 166.995 83.951 166.892 83.9836 166.77C84.0162 166.649 83.9993 166.519 83.9365 166.41Z" fill="black"/>
<path d="M78.1728 164.92C78.2267 164.951 78.2862 164.971 78.348 164.979C78.4097 164.987 78.4724 164.983 78.5326 164.967C78.5928 164.951 78.6492 164.923 78.6986 164.885C78.748 164.847 78.7894 164.8 78.8205 164.746L79.9104 162.859C79.9722 162.75 79.9884 162.621 79.9556 162.5C79.9227 162.38 79.8435 162.277 79.7351 162.214C79.6267 162.151 79.498 162.134 79.377 162.166C79.256 162.198 79.1525 162.277 79.0891 162.384L77.9993 164.272C77.9364 164.381 77.9194 164.51 77.9519 164.632C77.9844 164.753 78.0639 164.857 78.1728 164.92Z" fill="black"/>
<path d="M74 163.802C74.1258 163.802 74.2464 163.752 74.3353 163.663C74.4243 163.574 74.4742 163.453 74.4743 163.327V161.148C74.475 161.085 74.4633 161.023 74.4397 160.965C74.4162 160.906 74.3814 160.853 74.3373 160.809C74.2932 160.764 74.2407 160.729 74.1828 160.705C74.1249 160.68 74.0628 160.668 74.0001 160.668C73.9373 160.668 73.8752 160.68 73.8173 160.705C73.7594 160.729 73.7069 160.764 73.6628 160.809C73.6187 160.853 73.5839 160.906 73.5604 160.965C73.5368 161.023 73.5251 161.085 73.5258 161.148V163.327C73.5258 163.453 73.5758 163.574 73.6647 163.663C73.7537 163.752 73.8743 163.802 74 163.802Z" fill="black"/>
<path d="M69.1796 164.746C69.243 164.854 69.3465 164.932 69.4675 164.964C69.5885 164.996 69.7172 164.979 69.8256 164.917C69.9339 164.854 70.0132 164.751 70.046 164.63C70.0788 164.51 70.0626 164.381 70.0008 164.272L68.911 162.384C68.8801 162.33 68.8387 162.282 68.7893 162.244C68.7399 162.205 68.6833 162.177 68.623 162.161C68.5626 162.144 68.4995 162.14 68.4375 162.148C68.3754 162.156 68.3156 162.176 68.2614 162.208C68.2072 162.239 68.1598 162.281 68.1218 162.33C68.0838 162.38 68.056 162.437 68.0401 162.497C68.0241 162.558 68.0203 162.621 68.0288 162.683C68.0373 162.745 68.058 162.805 68.0897 162.859L69.1796 164.746Z" fill="black"/>
<path d="M66.5991 167.327L64.7116 166.237C64.6576 166.205 64.5979 166.184 64.536 166.176C64.474 166.167 64.4109 166.171 64.3504 166.187C64.2899 166.203 64.2332 166.231 64.1835 166.269C64.1337 166.307 64.092 166.354 64.0607 166.408C64.0295 166.463 64.0092 166.522 64.0011 166.585C63.9931 166.647 63.9974 166.71 64.0138 166.77C64.0302 166.83 64.0584 166.887 64.0968 166.936C64.1351 166.986 64.1829 167.027 64.2373 167.058L66.125 168.148C66.179 168.18 66.2387 168.2 66.3006 168.209C66.3626 168.217 66.4257 168.213 66.4862 168.198C66.5467 168.182 66.6034 168.154 66.6531 168.116C66.7029 168.078 66.7446 168.03 66.7759 167.976C66.8071 167.922 66.8274 167.862 66.8355 167.8C66.8435 167.738 66.8392 167.675 66.8228 167.615C66.8064 167.554 66.7782 167.498 66.7398 167.448C66.7015 167.399 66.6535 167.357 66.5991 167.327Z" fill="black"/>
</g>
<line x1="50" y1="146" x2="50" y2="194" stroke="#8D8D8D" stroke-width="4"/>
</g>
<rect x="48.5" y="146.5" width="983" height="247" stroke="#8D8D8D"/>
<rect width="192" height="92" transform="translate(64 270)" fill="white" style="mix-blend-mode:multiply"/>
<rect width="48" height="48" transform="translate(136 270)" fill="#24A148"/>
<rect width="20" height="20" transform="translate(150 284)" fill="white" style="mix-blend-mode:multiply"/>
<path d="M167.5 294V297.75H152.5V287.75H160V286.5H152.5C152.168 286.5 151.851 286.632 151.616 286.866C151.382 287.101 151.25 287.418 151.25 287.75V297.75C151.25 298.082 151.382 298.399 151.616 298.634C151.851 298.868 152.168 299 152.5 299H157.5V301.5H155V302.75H165V301.5H162.5V299H167.5C167.832 299 168.149 298.868 168.384 298.634C168.618 298.399 168.75 298.082 168.75 297.75V294H167.5ZM161.25 301.5H158.75V299H161.25V301.5Z" fill="white"/>
<path d="M163.125 293.375L160 290.275L160.994 289.294L163.125 291.406L167.756 286.812L168.75 287.8L163.125 293.375Z" fill="white"/>
<text fill="black" xml:space="preserve" style="white-space: pre" font-family="IBM Plex Sans" font-size="14" font-weight="600" letter-spacing="0.16px"><tspan x="71.8467" y="340.25">IBM Cloud Activity Tracker</tspan></text>
<text fill="black" xml:space="preserve" style="white-space: pre" font-family="IBM Plex Sans" font-size="14" letter-spacing="0.16px"><tspan x="65.2541" y="358.25">Hosted event search instance</tspan></text>
<rect x="397" y="211" width="286" height="166" fill="white"/>
<rect x="397" y="211" width="286" height="166" fill="#EDF5FF"/>
<g clip-path="url(#clip2_712_44753)">
<text fill="black" xml:space="preserve" style="white-space: pre" font-family="IBM Plex Sans" font-size="14" font-weight="600" letter-spacing="0.16px"><tspan x="460" y="230.25">IBM Cloud Object Storage&#10;</tspan></text>
<text fill="black" xml:space="preserve" style="white-space: pre" font-family="IBM Plex Sans" font-size="14" letter-spacing="0.16px"><tspan x="460" y="248.25">Instance</tspan></text>
<rect width="48" height="48" transform="translate(396 210)" fill="#0F62FE"/>
<rect width="20" height="20" transform="translate(410 224)" fill="white" style="mix-blend-mode:multiply"/>
<path d="M427.5 236.5H426.25V237.75H427.5V241.5H412.5V237.75H418.75V236.5H412.5C412.169 236.5 411.851 236.632 411.617 236.867C411.382 237.101 411.25 237.419 411.25 237.75V241.5C411.25 241.831 411.382 242.149 411.617 242.383C411.851 242.618 412.169 242.75 412.5 242.75H427.5C427.831 242.75 428.149 242.618 428.383 242.383C428.618 242.149 428.75 241.831 428.75 241.5V237.75C428.75 237.419 428.618 237.101 428.383 236.867C428.149 236.632 427.831 236.5 427.5 236.5Z" fill="white"/>
<path d="M414.375 240.25C414.72 240.25 415 239.97 415 239.625C415 239.28 414.72 239 414.375 239C414.03 239 413.75 239.28 413.75 239.625C413.75 239.97 414.03 240.25 414.375 240.25Z" fill="white"/>
<path d="M428.75 229H423.75V232.75H420V237.75H425V234H428.75V229ZM423.75 236.5H421.25V234H423.75V236.5ZM427.5 232.75H425V230.25H427.5V232.75Z" fill="white"/>
<path d="M421.25 230.25H416.25V225.25H421.25V230.25ZM417.5 229H420V226.5H417.5V229Z" fill="white"/>
</g>
<rect x="396.5" y="210.5" width="287" height="167" stroke="#0F62FE"/>
<rect width="48" height="92" transform="translate(516 270)" fill="white" style="mix-blend-mode:multiply"/>
<rect width="48" height="48" transform="translate(516 270)" fill="#0F62FE"/>
<rect width="20" height="20" transform="translate(530 284)" fill="white" style="mix-blend-mode:multiply"/>
<path d="M547.5 287.75H539.375V289H547.5V287.75Z" fill="white"/>
<path d="M547.5 299H539.375V300.25H547.5V299Z" fill="white"/>
<path d="M540.625 293.375H532.5V294.625H540.625V293.375Z" fill="white"/>
<path d="M534.375 290.875C533.881 290.875 533.397 290.728 532.986 290.454C532.575 290.179 532.255 289.789 532.065 289.332C531.876 288.875 531.827 288.372 531.923 287.887C532.02 287.402 532.258 286.957 532.607 286.607C532.957 286.258 533.402 286.02 533.887 285.923C534.372 285.827 534.875 285.876 535.332 286.065C535.789 286.255 536.179 286.575 536.454 286.986C536.728 287.397 536.875 287.881 536.875 288.375C536.875 289.038 536.612 289.674 536.143 290.143C535.674 290.612 535.038 290.875 534.375 290.875ZM534.375 287.125C534.128 287.125 533.886 287.198 533.681 287.336C533.475 287.473 533.315 287.668 533.22 287.897C533.126 288.125 533.101 288.376 533.149 288.619C533.197 288.861 533.316 289.084 533.491 289.259C533.666 289.434 533.889 289.553 534.131 289.601C534.374 289.649 534.625 289.624 534.853 289.53C535.082 289.435 535.277 289.275 535.414 289.069C535.552 288.864 535.625 288.622 535.625 288.375C535.625 288.043 535.493 287.726 535.259 287.491C535.024 287.257 534.707 287.125 534.375 287.125Z" fill="white"/>
<path d="M534.375 302.125C533.881 302.125 533.397 301.978 532.986 301.704C532.575 301.429 532.255 301.039 532.065 300.582C531.876 300.125 531.827 299.622 531.923 299.137C532.02 298.652 532.258 298.207 532.607 297.857C532.957 297.508 533.402 297.27 533.887 297.173C534.372 297.077 534.875 297.126 535.332 297.315C535.789 297.505 536.179 297.825 536.454 298.236C536.728 298.647 536.875 299.131 536.875 299.625C536.875 300.288 536.612 300.924 536.143 301.393C535.674 301.862 535.038 302.125 534.375 302.125ZM534.375 298.375C534.128 298.375 533.886 298.448 533.681 298.586C533.475 298.723 533.315 298.918 533.22 299.147C533.126 299.375 533.101 299.626 533.149 299.869C533.197 300.111 533.316 300.334 533.491 300.509C533.666 300.684 533.889 300.803 534.131 300.851C534.374 300.899 534.625 300.874 534.853 300.78C535.082 300.685 535.277 300.525 535.414 300.319C535.552 300.114 535.625 299.872 535.625 299.625C535.625 299.293 535.493 298.976 535.259 298.741C535.024 298.507 534.707 298.375 534.375 298.375Z" fill="white"/>
<path d="M545.625 296.5C545.131 296.5 544.647 296.353 544.236 296.079C543.825 295.804 543.505 295.414 543.315 294.957C543.126 294.5 543.077 293.997 543.173 293.512C543.27 293.027 543.508 292.582 543.857 292.232C544.207 291.883 544.652 291.645 545.137 291.548C545.622 291.452 546.125 291.501 546.582 291.69C547.039 291.88 547.429 292.2 547.704 292.611C547.978 293.022 548.125 293.506 548.125 294C548.125 294.663 547.862 295.299 547.393 295.768C546.924 296.237 546.288 296.5 545.625 296.5ZM545.625 292.75C545.378 292.75 545.136 292.823 544.931 292.961C544.725 293.098 544.565 293.293 544.47 293.522C544.376 293.75 544.351 294.001 544.399 294.244C544.447 294.486 544.566 294.709 544.741 294.884C544.916 295.059 545.139 295.178 545.381 295.226C545.624 295.274 545.875 295.249 546.103 295.155C546.332 295.06 546.527 294.9 546.664 294.694C546.802 294.489 546.875 294.247 546.875 294C546.875 293.668 546.743 293.351 546.509 293.116C546.274 292.882 545.957 292.75 545.625 292.75Z" fill="white"/>
<text fill="black" xml:space="preserve" style="white-space: pre" font-family="IBM Plex Sans" font-size="14" font-weight="600" letter-spacing="0.16px"><tspan x="516.973" y="340.25">Bucket</tspan></text>
<text fill="black" xml:space="preserve" style="white-space: pre" font-family="IBM Plex Sans" font-size="14" letter-spacing="0.16px"><tspan x="517.645" y="358.25">json.gz</tspan></text>
<rect width="192" height="92" transform="translate(824 270)" fill="white" style="mix-blend-mode:multiply"/>
<rect width="48" height="48" transform="translate(896 270)" fill="#0F62FE"/>
<rect width="20" height="20" transform="translate(910 284)" fill="white" style="mix-blend-mode:multiply"/>
<path d="M925 297.125V289.625H923.75V298.375H928.75V297.125H925Z" fill="white"/>
<path d="M921.25 289.625H918.75C918.418 289.625 918.101 289.757 917.866 289.991C917.632 290.226 917.5 290.543 917.5 290.875V297.125C917.5 297.457 917.632 297.774 917.866 298.009C918.101 298.243 918.418 298.375 918.75 298.375H919.375V299.625C919.375 299.957 919.507 300.274 919.741 300.509C919.976 300.743 920.293 300.875 920.625 300.875H921.875V299.625H920.625V298.375H921.25C921.582 298.375 921.899 298.243 922.134 298.009C922.368 297.774 922.5 297.457 922.5 297.125V290.875C922.5 290.543 922.368 290.226 922.134 289.991C921.899 289.757 921.582 289.625 921.25 289.625ZM918.75 297.125V290.875H921.25V297.125H918.75Z" fill="white"/>
<path d="M915 298.375H911.25V297.125H915V294.625H912.5C912.168 294.625 911.851 294.493 911.616 294.259C911.382 294.024 911.25 293.707 911.25 293.375V290.875C911.25 290.543 911.382 290.226 911.616 289.991C911.851 289.757 912.168 289.625 912.5 289.625H916.25V290.875H912.5V293.375H915C915.332 293.375 915.649 293.507 915.884 293.741C916.118 293.976 916.25 294.293 916.25 294.625V297.125C916.25 297.457 916.118 297.774 915.884 298.009C915.649 298.243 915.332 298.375 915 298.375Z" fill="white"/>
<text fill="black" xml:space="preserve" style="white-space: pre" font-family="IBM Plex Sans" font-size="14" font-weight="600" letter-spacing="0.16px"><tspan x="843.998" y="340.25">IBM Cloud Data Engine</tspan></text>
<text fill="black" xml:space="preserve" style="white-space: pre" font-family="IBM Plex Sans" font-size="14" letter-spacing="0.16px"><tspan x="891.802" y="358.25">Instance</tspan></text>
<rect width="332" height="12" transform="translate(184 288)" fill="white" style="mix-blend-mode:multiply"/>
<path d="M184 294H508" stroke="black"/>
<path d="M508 290L516 294L508 298L508 290Z" fill="black"/>
<rect width="332" height="12" transform="translate(564 288)" fill="white" style="mix-blend-mode:multiply"/>
<path d="M572 290L564 294L572 298L572 290Z" fill="black"/>
<path d="M572 294H896" stroke="black"/>
<rect x="238.5" y="286.5" width="103" height="15" rx="7.5" fill="white"/>
<text fill="black" xml:space="preserve" style="white-space: pre" font-family="IBM Plex Sans" font-size="12" letter-spacing="0.32px"><tspan x="246" y="297.5">Auditing events</tspan></text>
<rect x="238.5" y="286.5" width="103" height="15" rx="7.5" stroke="black"/>
<rect x="765.5" y="286.5" width="49" height="15" rx="7.5" fill="white"/>
<text fill="black" xml:space="preserve" style="white-space: pre" font-family="IBM Plex Sans" font-size="12" letter-spacing="0.32px"><tspan x="773" y="297.5">Query</tspan></text>
<rect x="765.5" y="286.5" width="49" height="15" rx="7.5" stroke="black"/>
<defs>
<clipPath id="clip0_712_44753">
<rect width="984" height="48" fill="white" transform="translate(48 146)"/>
</clipPath>
<clipPath id="clip1_712_44753">
<rect width="20" height="20" fill="white" transform="translate(64 160)"/>
</clipPath>
<clipPath id="clip2_712_44753">
<rect width="288" height="48" fill="white" transform="translate(396 210)"/>
</clipPath>
</defs>
</svg>
