<svg width="1080" height="540" viewBox="0 0 1080 540" fill="none" xmlns="http://www.w3.org/2000/svg">
<rect width="1080" height="540" fill="#F4F4F4"/>
<rect width="192" height="92" transform="translate(56 224)" fill="white" style="mix-blend-mode:multiply"/>
<rect width="48" height="48" transform="translate(128 224)" fill="#24A148"/>
<rect width="20" height="20" transform="translate(142 238)" fill="white" style="mix-blend-mode:multiply"/>
<path d="M159.5 248V251.75H144.5V241.75H152V240.5H144.5C144.168 240.5 143.851 240.632 143.616 240.866C143.382 241.101 143.25 241.418 143.25 241.75V251.75C143.25 252.082 143.382 252.399 143.616 252.634C143.851 252.868 144.168 253 144.5 253H149.5V255.5H147V256.75H157V255.5H154.5V253H159.5C159.832 253 160.149 252.868 160.384 252.634C160.618 252.399 160.75 252.082 160.75 251.75V248H159.5ZM153.25 255.5H150.75V253H153.25V255.5Z" fill="white"/>
<path d="M155.125 247.375L152 244.275L152.994 243.294L155.125 245.406L159.756 240.812L160.75 241.8L155.125 247.375Z" fill="white"/>
<text fill="black" xml:space="preserve" style="white-space: pre" font-family="IBM Plex Sans" font-size="14" font-weight="600" letter-spacing="0.16px"><tspan x="63.8467" y="294.25">IBM Cloud Activity Tracker</tspan></text>
<text fill="black" xml:space="preserve" style="white-space: pre" font-family="IBM Plex Sans" font-size="14" letter-spacing="0.16px"><tspan x="57.2541" y="312.25">Hosted event search instance</tspan></text>
<rect width="192" height="92" transform="translate(376 340)" fill="white" style="mix-blend-mode:multiply"/>
<rect width="48" height="48" transform="translate(448 340)" fill="#24A148"/>
<rect width="20" height="20" transform="translate(462 354)" fill="white" style="mix-blend-mode:multiply"/>
<path d="M479.5 364V367.75H464.5V357.75H472V356.5H464.5C464.168 356.5 463.851 356.632 463.616 356.866C463.382 357.101 463.25 357.418 463.25 357.75V367.75C463.25 368.082 463.382 368.399 463.616 368.634C463.851 368.868 464.168 369 464.5 369H469.5V371.5H467V372.75H477V371.5H474.5V369H479.5C479.832 369 480.149 368.868 480.384 368.634C480.618 368.399 480.75 368.082 480.75 367.75V364H479.5ZM473.25 371.5H470.75V369H473.25V371.5Z" fill="white"/>
<path d="M475.125 363.375L472 360.275L472.994 359.294L475.125 361.406L479.756 356.812L480.75 357.8L475.125 363.375Z" fill="white"/>
<text fill="black" xml:space="preserve" style="white-space: pre" font-family="IBM Plex Sans" font-size="14" font-weight="600" letter-spacing="0.16px"><tspan x="383.847" y="410.25">IBM Cloud Activity Tracker</tspan></text>
<text fill="black" xml:space="preserve" style="white-space: pre" font-family="IBM Plex Sans" font-size="14" letter-spacing="0.16px"><tspan x="377.254" y="428.25">Hosted event search instance</tspan></text>
<rect width="192" height="92" transform="translate(376 108)" fill="white" style="mix-blend-mode:multiply"/>
<rect width="48" height="48" transform="translate(448 108)" fill="#0F62FE"/>
<rect width="20" height="20" transform="translate(462 122)" fill="white" style="mix-blend-mode:multiply"/>
<path d="M476.688 127.75L476.062 128.812C477.438 129.562 478.25 131.062 478.25 132.625C478.25 135.875 475.875 138.063 474.5 139V137H473.875C472.312 137 470.812 136.125 470.062 134.75L469 135.375C469.875 137 471.5 138 473.313 138.25V140.125C473.313 140.313 473.438 140.563 473.625 140.688C473.625 140.75 473.75 140.75 473.875 140.75C474 140.75 474.062 140.75 474.125 140.688C474.375 140.563 479.5 137.938 479.5 132.625C479.5 130.625 478.437 128.75 476.688 127.75Z" fill="white"/>
<path d="M474.5 130.188V126.875C475.25 126.625 475.75 125.937 475.75 125.125C475.75 124.062 474.938 123.25 473.875 123.25C472.812 123.25 472 124.062 472 125.125C472 125.937 472.5 126.625 473.25 126.875V130.188C473 130.25 472.813 130.312 472.625 130.438L469.312 127.125C469.437 126.937 469.5 126.688 469.5 126.375C469.5 125.312 468.688 124.5 467.625 124.5C466.562 124.5 465.75 125.312 465.75 126.375C465.75 127.438 466.562 128.25 467.625 128.25C467.938 128.25 468.188 128.187 468.438 128.062L471.75 131.375C471.625 131.563 471.562 131.812 471.5 132H468.125C467.875 131.25 467.187 130.75 466.375 130.75C465.312 130.75 464.5 131.562 464.5 132.625C464.5 133.688 465.312 134.5 466.375 134.5C467.187 134.5 467.875 134 468.125 133.25H471.438C471.688 134.313 472.688 135.125 473.875 135.125C475.25 135.125 476.375 134 476.375 132.625C476.375 131.438 475.563 130.5 474.5 130.188ZM473.875 124.5C474.25 124.5 474.5 124.75 474.5 125.125C474.5 125.5 474.25 125.75 473.875 125.75C473.5 125.75 473.25 125.5 473.25 125.125C473.25 124.75 473.5 124.5 473.875 124.5ZM467.625 127C467.25 127 467 126.75 467 126.375C467 126 467.25 125.75 467.625 125.75C468 125.75 468.25 126 468.25 126.375C468.25 126.75 468 127 467.625 127ZM466.375 133.25C466 133.25 465.75 133 465.75 132.625C465.75 132.25 466 132 466.375 132C466.75 132 467 132.25 467 132.625C467 133 466.75 133.25 466.375 133.25ZM473.875 133.875C473.187 133.875 472.625 133.313 472.625 132.625C472.625 131.937 473.187 131.375 473.875 131.375C474.563 131.375 475.125 131.937 475.125 132.625C475.125 133.313 474.563 133.875 473.875 133.875Z" fill="white"/>
<text fill="black" xml:space="preserve" style="white-space: pre" font-family="IBM Plex Sans" font-size="14" font-weight="600" letter-spacing="0.16px"><tspan x="376.514" y="178.25">Event Streams for IBM Cloud</tspan></text>
<text fill="black" xml:space="preserve" style="white-space: pre" font-family="IBM Plex Sans" font-size="14" letter-spacing="0.16px"><tspan x="443.802" y="196.25">Instance</tspan></text>
<rect width="104" height="92" transform="translate(676 108)" fill="white" style="mix-blend-mode:multiply"/>
<rect width="48" height="48" transform="translate(704 108)" fill="#8D8D8D"/>
<path d="M727.79 134.391C727.493 134.755 727.148 135.054 726.749 135.29C726.35 135.524 725.923 135.68 725.465 135.761V137.575C726.315 137.786 726.97 138.266 727.405 139.037C727.748 139.645 727.859 140.302 727.747 140.992C727.514 142.423 726.295 143.467 724.896 143.499C723.463 143.533 722.217 142.52 721.928 141.128C721.762 140.327 721.896 139.572 722.336 138.883C722.776 138.195 723.402 137.766 724.19 137.574V137.507C724.19 136.95 724.189 136.392 724.191 135.835C724.191 135.775 724.172 135.757 724.117 135.746C723.306 135.59 722.614 135.209 722.047 134.604C721.464 133.981 721.117 133.241 721.024 132.387C720.826 130.575 721.871 128.897 723.57 128.295C723.747 128.233 723.933 128.195 724.116 128.148C724.15 128.14 724.165 128.129 724.165 128.091C724.164 127.55 724.163 127.008 724.165 126.466C724.165 126.42 724.141 126.413 724.106 126.404C723.344 126.202 722.746 125.767 722.321 125.096C721.961 124.527 721.813 123.9 721.876 123.226C721.999 121.907 722.933 120.848 724.215 120.566C725.386 120.307 726.639 120.829 727.295 121.847C727.643 122.386 727.822 122.978 727.781 123.619C727.704 124.843 727.103 125.719 726.007 126.242C725.842 126.321 725.659 126.364 725.483 126.419C725.444 126.431 725.431 126.446 725.431 126.487C725.433 127.017 725.433 127.546 725.431 128.076C725.431 128.118 725.444 128.132 725.486 128.14C726.407 128.311 727.169 128.76 727.772 129.485C727.782 129.497 727.793 129.508 727.806 129.522C727.968 129.407 728.129 129.293 728.29 129.179C728.575 128.977 728.859 128.774 729.146 128.573C729.183 128.546 729.194 128.524 729.181 128.477C728.802 127.087 729.452 125.629 730.731 124.993C732.226 124.248 734.04 124.906 734.73 126.441C735.501 128.158 734.536 130.173 732.719 130.596C731.61 130.854 730.651 130.537 729.858 129.71C729.845 129.696 729.834 129.679 729.821 129.662C729.705 129.744 729.597 129.82 729.489 129.897C729.149 130.138 728.811 130.379 728.471 130.618C728.432 130.646 728.43 130.669 728.444 130.71C728.593 131.146 728.663 131.594 728.65 132.056C728.639 132.452 728.565 132.837 728.437 133.212C728.426 133.242 728.417 133.265 728.453 133.291C728.897 133.606 729.339 133.924 729.783 134.242C729.792 134.248 729.802 134.253 729.799 134.251C729.971 134.101 730.128 133.943 730.305 133.814C730.922 133.362 731.613 133.174 732.371 133.263C733.662 133.414 734.689 134.378 734.944 135.664C735.264 137.284 734.182 138.894 732.577 139.185C731.009 139.469 729.523 138.488 729.151 136.921C729.036 136.439 729.045 135.957 729.173 135.479C729.192 135.41 729.176 135.379 729.122 135.342C728.695 135.039 728.27 134.733 727.845 134.429C727.829 134.417 727.813 134.406 727.79 134.391V134.391ZM722.82 131.947C722.82 133.067 723.719 133.976 724.826 133.975C725.931 133.973 726.828 133.067 726.83 131.95C726.832 130.832 725.931 129.92 724.826 129.919C723.72 129.918 722.82 130.828 722.82 131.947ZM730.598 127.683C730.599 128.485 731.243 129.137 732.034 129.138C732.824 129.139 733.472 128.485 733.474 127.685C733.476 126.883 732.828 126.228 732.033 126.229C731.24 126.229 730.598 126.88 730.598 127.683V127.683ZM726.262 123.5C726.262 122.697 725.622 122.047 724.827 122.045C724.035 122.043 723.388 122.694 723.386 123.495C723.383 124.296 724.032 124.955 724.825 124.955C725.616 124.955 726.26 124.302 726.261 123.5L726.262 123.5ZM730.598 136.237C730.597 137.038 731.241 137.693 732.033 137.694C732.823 137.696 733.471 137.043 733.474 136.243C733.477 135.441 732.829 134.784 732.035 134.785C731.241 134.785 730.6 135.434 730.599 136.237H730.598ZM724.823 139.049C724.03 139.051 723.386 139.703 723.386 140.503C723.386 141.304 724.038 141.961 724.829 141.958C725.622 141.955 726.264 141.301 726.262 140.5C726.259 139.696 725.616 139.047 724.824 139.049H724.823Z" fill="white"/>
<text fill="black" xml:space="preserve" style="white-space: pre" font-family="IBM Plex Sans" font-size="14" font-weight="600" letter-spacing="0.16px"><tspan x="679.749" y="178.25">Kafka Connect</tspan></text>
<rect width="80" height="92" transform="translate(944 108)" fill="white" style="mix-blend-mode:multiply"/>
<rect width="48" height="48" transform="translate(960 108)" fill="#8D8D8D"/>
<rect width="20" height="20" transform="translate(974 122)" fill="white" style="mix-blend-mode:multiply"/>
<path d="M992.75 137V135.75H991.437C991.356 135.359 991.201 134.987 990.979 134.654L991.911 133.723L991.027 132.839L990.096 133.771C989.763 133.549 989.391 133.394 989 133.313V132H987.75V133.313C987.359 133.394 986.987 133.549 986.654 133.771L985.723 132.839L984.839 133.723L985.771 134.654C985.549 134.987 985.394 135.359 985.313 135.75H984V137H985.313C985.394 137.391 985.549 137.763 985.771 138.096L984.839 139.027L985.723 139.911L986.654 138.979C986.987 139.201 987.359 139.356 987.75 139.437V140.75H989V139.437C989.391 139.356 989.763 139.201 990.096 138.979L991.027 139.911L991.911 139.027L990.979 138.096C991.201 137.763 991.356 137.391 991.437 137H992.75ZM988.375 138.25C988.004 138.25 987.642 138.14 987.333 137.934C987.025 137.728 986.785 137.435 986.643 137.093C986.501 136.75 986.464 136.373 986.536 136.009C986.608 135.645 986.787 135.311 987.049 135.049C987.311 134.787 987.645 134.608 988.009 134.536C988.373 134.464 988.75 134.501 989.093 134.643C989.435 134.785 989.728 135.025 989.934 135.333C990.14 135.642 990.25 136.004 990.25 136.375C990.249 136.872 990.052 137.349 989.7 137.7C989.349 138.052 988.872 138.249 988.375 138.25Z" fill="white"/>
<path d="M982.75 138.667L980.729 137.589C979.828 137.11 979.075 136.395 978.55 135.52C978.026 134.646 977.749 133.645 977.75 132.625V124.5H990.25V130.75H991.5V124.5C991.5 124.169 991.368 123.851 991.133 123.617C990.899 123.382 990.581 123.25 990.25 123.25H977.75C977.419 123.25 977.101 123.382 976.867 123.617C976.632 123.851 976.5 124.169 976.5 124.5V132.625C976.499 133.871 976.837 135.095 977.478 136.164C978.119 137.232 979.04 138.106 980.14 138.692L982.75 140.083V138.667Z" fill="white"/>
<text fill="black" xml:space="preserve" style="white-space: pre" font-family="IBM Plex Sans" font-size="14" font-weight="600" letter-spacing="0.16px"><tspan x="952.017" y="178.25">SIEM tool</tspan></text>
<rect width="80" height="92" transform="translate(944 224)" fill="white" style="mix-blend-mode:multiply"/>
<rect width="48" height="48" transform="translate(960 224)" fill="#8D8D8D"/>
<rect width="20" height="20" transform="translate(974 238)" fill="white" style="mix-blend-mode:multiply"/>
<path d="M990.875 239.875H977.125C976.794 239.875 976.476 240.007 976.241 240.241C976.007 240.476 975.875 240.794 975.875 241.125V254.875C975.875 255.206 976.007 255.524 976.242 255.758C976.476 255.993 976.794 256.125 977.125 256.125H990.875C991.206 256.125 991.524 255.993 991.758 255.758C991.993 255.524 992.125 255.206 992.125 254.875V241.125C992.125 240.794 991.993 240.476 991.758 240.242C991.524 240.007 991.206 239.875 990.875 239.875ZM990.875 243.625H984.625V241.125H990.875V243.625ZM983.375 254.875H980.875V252.375H983.375V254.875ZM983.375 251.125H980.875V248.625H983.375V251.125ZM979.625 251.125H977.125V248.625H979.625V251.125ZM980.875 247.375V244.875H987.125V247.375H980.875ZM980.875 243.625V241.125H983.375V243.625H980.875ZM988.375 244.875H990.875V247.375H988.375V244.875ZM979.625 241.125V247.375H977.125V241.125H979.625ZM977.125 252.375H979.625V254.875H977.125V252.375ZM984.625 254.875V248.625H990.876L990.876 254.875H984.625Z" fill="white"/>
<text fill="black" xml:space="preserve" style="white-space: pre" font-family="IBM Plex Sans" font-size="14" font-weight="600" letter-spacing="0.16px"><tspan x="952.838" y="294.25">Data lake</tspan></text>
<rect width="88" height="92" transform="translate(940 340)" fill="white" style="mix-blend-mode:multiply"/>
<rect width="48" height="48" transform="translate(960 340)" fill="#8D8D8D"/>
<rect width="20" height="20" transform="translate(974 354)" fill="white" style="mix-blend-mode:multiply"/>
<path d="M992.75 371.866L989.82 368.936C990.603 367.928 990.972 366.659 990.853 365.388C990.734 364.117 990.134 362.94 989.177 362.095C988.22 361.251 986.977 360.803 985.701 360.842C984.425 360.882 983.212 361.407 982.31 362.31C981.407 363.212 980.882 364.425 980.842 365.701C980.803 366.977 981.251 368.22 982.095 369.177C982.94 370.134 984.117 370.734 985.388 370.853C986.659 370.972 987.928 370.603 988.936 369.82L991.866 372.75L992.75 371.866ZM985.875 369.625C985.133 369.625 984.408 369.405 983.792 368.993C983.175 368.581 982.694 367.995 982.41 367.31C982.127 366.625 982.052 365.871 982.197 365.143C982.342 364.416 982.699 363.748 983.223 363.223C983.748 362.699 984.416 362.342 985.143 362.197C985.871 362.052 986.625 362.127 987.31 362.41C987.995 362.694 988.581 363.175 988.993 363.792C989.405 364.408 989.625 365.133 989.625 365.875C989.624 366.869 989.228 367.822 988.525 368.525C987.822 369.228 986.869 369.624 985.875 369.625Z" fill="white"/>
<path d="M980.25 361.5H975.25V362.75H980.25V361.5Z" fill="white"/>
<path d="M985.25 355.25H975.25V356.5H985.25V355.25Z" fill="white"/>
<path d="M985.25 358.375H975.25V359.625H985.25V358.375Z" fill="white"/>
<text fill="black" xml:space="preserve" style="white-space: pre" font-family="IBM Plex Sans" font-size="14" font-weight="600" letter-spacing="0.16px"><tspan x="941.573" y="410.25">Analysis tool</tspan></text>
<rect width="8" height="8" transform="translate(440 128)" fill="white" style="mix-blend-mode:multiply"/>
<path d="M440 128L448 132L440 136V128Z" fill="black"/>
<rect width="122" height="86" transform="translate(318 132)" fill="white" style="mix-blend-mode:multiply"/>
<path d="M440 132H326C321.582 132 318 135.582 318 140V218" stroke="black"/>
<rect width="96" height="116" transform="matrix(1 0 0 -1 856 248)" fill="white" style="mix-blend-mode:multiply"/>
<path d="M952 248H864C859.582 248 856 244.418 856 240V132" stroke="black"/>
<rect width="8" height="8" transform="matrix(1 0 0 -1 952 252)" fill="white" style="mix-blend-mode:multiply"/>
<path d="M952 252L960 248L952 244V252Z" fill="black"/>
<rect width="96" height="136" transform="matrix(1 0 0 -1 856 364)" fill="white" style="mix-blend-mode:multiply"/>
<path d="M952 364H864C859.582 364 856 360.418 856 356V228" stroke="black"/>
<rect width="8" height="8" transform="matrix(1 0 0 -1 952 368)" fill="white" style="mix-blend-mode:multiply"/>
<path d="M952 368L960 364L952 360V368Z" fill="black"/>
<rect width="122" height="146" transform="matrix(1 0 0 -1 318 364)" fill="white" style="mix-blend-mode:multiply"/>
<path d="M440 364H326C321.582 364 318 360.418 318 356V218" stroke="black"/>
<rect width="8" height="8" transform="matrix(1 0 0 -1 440 368)" fill="white" style="mix-blend-mode:multiply"/>
<path d="M440 368L448 364L440 360V368Z" fill="black"/>
<rect width="142" height="8" transform="translate(176 244)" fill="white" style="mix-blend-mode:multiply"/>
<path d="M176 248L318 248" stroke="black"/>
<rect width="208" height="8" transform="translate(496 128)" fill="white" style="mix-blend-mode:multiply"/>
<path d="M496 132L696 132" stroke="black"/>
<path d="M696 128L704 132L696 136V128Z" fill="black"/>
<rect width="208" height="8" transform="translate(752 128)" fill="white" style="mix-blend-mode:multiply"/>
<path d="M752 132L952 132" stroke="black"/>
<path d="M952 128L960 132L952 136V128Z" fill="black"/>
<rect x="303" y="240" width="30" height="16" rx="8" fill="black"/>
<text fill="white" xml:space="preserve" style="white-space: pre" font-family="IBM Plex Sans" font-size="12" letter-spacing="0.32px"><tspan x="311" y="251.5">Or</tspan></text>
</svg>
