<svg xmlns="http://www.w3.org/2000/svg" viewBox="0 0 400.96 250"><defs><style>.cls-1{fill:#f4f4f4;}.cls-2{fill:#5a6872;fill-rule:evenodd;}.cls-3{font-size:18px;font-family:IBMPlexSans-Bold, IBM Plex Sans;font-weight:700;}.cls-4{letter-spacing:0em;}.cls-5{letter-spacing:-0.01em;}.cls-6{letter-spacing:0em;}.cls-7{letter-spacing:0em;}.cls-8{letter-spacing:-0.05em;}.cls-9{letter-spacing:-0.01em;}.cls-10{letter-spacing:-0.03em;}.cls-11{letter-spacing:-0.01em;}.cls-12{letter-spacing:0em;}.cls-13{font-family:IBMPlexSans, IBM Plex Sans;font-weight:400;}.cls-14{letter-spacing:0em;}.cls-15{letter-spacing:-0.02em;}.cls-16{letter-spacing:-0.01em;}.cls-17{letter-spacing:-0.01em;}.cls-18{letter-spacing:0.01em;}.cls-19{letter-spacing:-0.01em;}</style></defs><g id="Layer_1" data-name="Layer 1"><rect class="cls-1" x="-0.52" y="-1" width="403" height="251"/><g id="checkmark-icon"><polygon id="Path" class="cls-2" points="65.66 31 71.53 37.76 46.82 66.25 32.48 49.72 38.35 42.96 46.82 52.73 65.66 31"/></g><text class="cls-3" transform="translate(42.29 107.09)">Ge<tspan class="cls-4" x="23.06" y="0">t</tspan><tspan x="29.86" y="0">ting </tspan><tspan class="cls-5" x="66.82" y="0">s</tspan><tspan x="75.74" y="0">ta</tspan><tspan class="cls-6" x="92.88" y="0">r</tspan><tspan class="cls-7" x="100.22" y="0">t</tspan><tspan x="107.04" y="0">ed with IBM Cloud </tspan><tspan x="0" y="21.6">Activity </tspan><tspan class="cls-8" x="69.26" y="21.6">T</tspan><tspan class="cls-9" x="78.97" y="21.6">r</tspan><tspan x="85.99" y="21.6">ac</tspan><tspan class="cls-10" x="105.53" y="21.6">k</tspan><tspan x="115.43" y="21.6">er </tspan><tspan class="cls-11" x="137.07" y="21.6">e</tspan><tspan class="cls-5" x="147.01" y="21.6">v</tspan><tspan class="cls-12" x="156.55" y="21.6">ent </tspan><tspan class="cls-4" x="188.53" y="21.6">r</tspan><tspan x="195.71" y="21.6">outing</tspan><tspan class="cls-13"><tspan class="cls-11" x="0" y="64.8">L</tspan><tspan x="8.84" y="64.8">earn h</tspan><tspan class="cls-4" x="59.63" y="64.8">o</tspan><tspan x="69.62" y="64.8">w </tspan><tspan class="cls-7" x="87.7" y="64.8">t</tspan><tspan x="93.94" y="64.8">o use IBM Cloud Activity </tspan><tspan class="cls-8" x="0" y="86.4">T</tspan><tspan class="cls-14" x="9.49" y="86.4">r</tspan><tspan x="16.02" y="86.4">ac</tspan><tspan class="cls-15" x="34.69" y="86.4">k</tspan><tspan x="43.87" y="86.4">er </tspan><tspan class="cls-14" x="64.6" y="86.4">t</tspan><tspan x="70.85" y="86.4">o </tspan><tspan class="cls-16" x="85.18" y="86.4">c</tspan><tspan x="94.12" y="86.4">o</tspan><tspan class="cls-4" x="104.2" y="86.4">l</tspan><tspan x="109.01" y="86.4">lect auditing </tspan><tspan class="cls-17" x="212.97" y="86.4">ev</tspan><tspan x="231.42" y="86.4">ents that </tspan><tspan x="0" y="108">a</tspan><tspan class="cls-4" x="9.61" y="108">r</tspan><tspan x="16.13" y="108">e </tspan><tspan class="cls-16" x="30.26" y="108">g</tspan><tspan x="39.65" y="108">ene</tspan><tspan class="cls-14" x="69.64" y="108">r</tspan><tspan x="76.18" y="108">a</tspan><tspan class="cls-7" x="85.79" y="108">t</tspan><tspan x="92.03" y="108">ed </tspan><tspan class="cls-4" x="116.6" y="108">b</tspan><tspan x="126.95" y="108">y se</tspan><tspan class="cls-18" x="158.83" y="108">r</tspan><tspan x="165.62" y="108">vi</tspan><tspan class="cls-19" x="178.97" y="108">c</tspan><tspan x="187.92" y="108">es in </tspan><tspan class="cls-4" x="229.79" y="108">y</tspan><tspan x="238.68" y="108">our IBM </tspan><tspan x="0" y="129.6">Cloud a</tspan><tspan class="cls-16" x="60.68" y="129.6">cc</tspan><tspan x="78.57" y="129.6">ount.</tspan></tspan></text></g></svg>